<svg viewBox="0 0 400 320" xmlns="http://www.w3.org/2000/svg" version="1"><path d="M196.798 158.522c-4.792 18.493-13.16 32.288-25.101 41.385-11.942 9.097-26.262 13.645-42.958 13.645-26.954 0-46.589-8.441-58.905-25.325-12.317-16.884-18.475-37.193-18.475-60.927 0-26.28 7.244-46.85 21.732-61.713 14.487-14.862 33.112-22.293 55.873-22.293 16.022 0 29.724 4.08 41.104 12.242 11.38 8.16 19.355 20.103 23.922 35.826l-21.339 5.053c-3.594-11.455-9.06-20.065-16.397-25.83-7.337-5.765-16.509-8.648-27.515-8.648-17.97 0-31.596 5.896-40.88 17.689-9.284 11.792-13.926 27.609-13.926 47.45 0 22.91 4.885 39.944 14.656 51.1 9.77 11.155 22.518 16.733 38.24 16.733 12.879 0 23.342-3.481 31.39-10.444 8.05-6.963 13.684-17.445 16.903-31.446l21.676 5.503zm134.432 7.187h-34.703l-9.659 47.843h-17.07l9.883-47.843h-35.377l-9.659 47.843h-17.07l9.995-47.843h-19.092v-16.621h22.236l8.536-40.88h-30.772V91.586h34.029l9.883-48.292h16.734l-9.659 48.292h35.265l9.883-48.292h16.734l-9.659 48.292h19.542v16.622h-23.023l-8.199 40.88h31.222v16.621zm-39.757-57.501h-35.49l-8.198 40.88h35.152l8.536-40.88z" font-size="230.006" font-weight="400" font-family="Arial Unicode MS"/></svg>