<svg viewBox="0 0 30 29" width="40" xmlns="http://www.w3.org/2000/svg"><path d="M12 9h13.5c.831 0 1.5.669 1.5 1.5v14c0 .831-.669 1.5-1.5 1.5H16z" fill="#e6e7e8"/><path d="M19.007 23.008L16 26l-.706-2.999z" fill="#376ad7"/><path d="M16.994 12.5a.5.5 0 1 0 0 1h7a.5.5 0 1 0 0-1h-7z" style="line-height:normal;text-indent:0;text-align:start;text-decoration-line:none;text-decoration-style:solid;text-decoration-color:#000;text-transform:none;block-progression:tb;isolation:auto;mix-blend-mode:normal" color="#000" font-weight="400" font-family="sans-serif" white-space="normal" overflow="visible" fill="#5f7987" fill-rule="evenodd"/><path d="M18.978 12.531a.5.5 0 0 0-.46.537 9.003 9.003 0 0 0 4.733 7.366.5.5 0 1 0 .473-.881 8 8 0 0 1-4.209-6.547.5.5 0 0 0-.537-.475z" style="line-height:normal;text-indent:0;text-align:start;text-decoration-line:none;text-decoration-style:solid;text-decoration-color:#000;text-transform:none;block-progression:tb;isolation:auto;mix-blend-mode:normal" color="#000" font-weight="400" font-family="sans-serif" white-space="normal" overflow="visible" fill="#5f7987"/><path d="M22.007 12.525a.5.5 0 0 0-.523.477 7.999 7.999 0 0 1-3.52 6.137.5.5 0 0 0 .559.83 9.001 9.001 0 0 0 3.959-6.904.5.5 0 0 0-.475-.54z" style="line-height:normal;text-indent:0;text-align:start;text-decoration-line:none;text-decoration-style:solid;text-decoration-color:#000;text-transform:none;block-progression:tb;isolation:auto;mix-blend-mode:normal" color="#000" font-weight="400" font-family="sans-serif" white-space="normal" overflow="visible" fill="#5f7987"/><path d="M20.492 10.5a.5.5 0 0 0-.492.508v2a.5.5 0 1 0 1 0v-2a.5.5 0 0 0-.508-.508z" style="line-height:normal;text-indent:0;text-align:start;text-decoration-line:none;text-decoration-style:solid;text-decoration-color:#000;text-transform:none;block-progression:tb;isolation:auto;mix-blend-mode:normal" color="#000" font-weight="400" font-family="sans-serif" white-space="normal" overflow="visible" fill="#5f7987" fill-rule="evenodd"/><path d="M19 23H5.5c-.831 0-1.5-.669-1.5-1.5v-14C4 6.669 4.669 6 5.5 6H15z" fill="#518ff5"/><path d="M9.109 8.525a2.996 2.996 0 0 0-1.73.852A3.006 3.006 0 0 0 6.901 13a3.005 3.005 0 0 0 3.375 1.399A3.004 3.004 0 0 0 12.5 11.5V11h-3v1h1.83c-.187.668-.616 1.245-1.313 1.432a1.996 1.996 0 0 1-2.25-.932 1.998 1.998 0 0 1 .318-2.416 1.995 1.995 0 0 1 2.415-.316L11 8.9a2.993 2.993 0 0 0-1.891-.375z" style="line-height:normal;text-indent:0;text-align:start;text-decoration-line:none;text-decoration-style:solid;text-decoration-color:#000;text-transform:none;block-progression:tb;isolation:auto;mix-blend-mode:normal" color="#000" font-weight="400" font-family="sans-serif" white-space="normal" overflow="visible" fill="#f9f9f9"/></svg>