<svg width="49.99999999999999" height="49.99999999999999" xmlns="http://www.w3.org/2000/svg">

 <g>
  <title>background</title>
  <rect fill="none" id="canvas_background" height="52" width="52" y="-1" x="-1"/>
 </g>
 <g>
  <title>Layer 1</title>
  <g id="svg_1">
   <path id="svg_2" fill="#2B414D" d="m25.300476,0.716229c-13.580155,0 -24.590503,10.785306 -24.590503,24.087888c0,13.304071 11.010348,24.087885 24.590503,24.087885s24.5905,-10.783813 24.5905,-24.087885c-0.000168,-13.302582 -11.010513,-24.087888 -24.5905,-24.087888zm6.888237,42.438239c-0.14146,-1.884895 -0.299652,-4.219925 -0.308937,-5.165356c-0.061445,-0.725643 -0.141464,-2.57135 -1.930298,-3.750118c7.101978,-0.582592 10.481613,-4.427624 10.724537,-9.508635c0.202927,-2.893497 -0.971397,-5.437889 -3.056847,-7.491299c0.106022,-2.196442 -0.067688,-4.799552 -0.21204,-5.943584c-1.601433,-0.451622 -5.336098,1.479899 -6.379761,2.306431c-2.20092,-0.837103 -7.587666,-1.130635 -10.86128,0c-2.32078,-1.598801 -4.962667,-2.586408 -6.402716,-2.310886c-1.329459,2.886041 -0.474888,5.613993 -0.215241,5.939112c-1.712187,1.53266 -4.100505,3.419039 -3.451889,7.370899c1.040441,5.794598 5.202394,8.920101 11.903249,9.684772c-1.429232,0.286087 -1.670649,1.330894 -1.79051,1.784016c-4.500102,1.818577 -5.786356,-1.123032 -6.355117,-1.889366c-1.888772,-2.289881 -3.58407,-1.625912 -3.688569,-1.589874c-0.101469,0.03606 -0.178278,0.180592 -0.167477,0.249878c0.095216,0.493797 1.123503,0.995209 1.17415,1.035721c1.393962,1.017689 1.910384,2.855953 2.228446,3.379848c1.999514,3.220264 6.647166,1.884892 6.691733,1.91201c0.003048,0.281464 -0.032236,2.651222 -0.059929,4.495445c-8.474328,-2.267403 -14.70957,-9.840054 -14.70957,-18.859365c0,-10.809464 8.944831,-19.571284 19.97966,-19.571284s19.979828,8.76182 19.979828,19.571284c0,8.435221 -5.455963,15.599737 -13.091423,18.350351z"/>
  </g>
  <g id="svg_3"/>
  <g id="svg_4"/>
  <g id="svg_5"/>
  <g id="svg_6"/>
  <g id="svg_7"/>
  <g id="svg_8"/>
  <g id="svg_9"/>
  <g id="svg_10"/>
  <g id="svg_11"/>
  <g id="svg_12"/>
  <g id="svg_13"/>
  <g id="svg_14"/>
  <g id="svg_15"/>
  <g id="svg_16"/>
  <g id="svg_17"/>
 </g>
</svg>