<svg width="50" height="50" xmlns="http://www.w3.org/2000/svg">
 <g>
  <title>background</title>
  <rect x="-1" y="-1" width="52" height="52" id="canvas_background" fill="none"/>
 </g>

 <g>
  <title>Layer 1</title>
  <g id="svg_4"/>
  <g id="svg_5"/>
  <g id="svg_6"/>
  <g id="svg_7"/>
  <g id="svg_8"/>
  <g id="svg_9"/>
  <g id="svg_10"/>
  <g id="svg_11"/>
  <g id="svg_12"/>
  <g id="svg_13"/>
  <g id="svg_14"/>
  <g id="svg_15"/>
  <g id="svg_16"/>
  <g id="svg_17"/>
  <g id="svg_18"/>
  <g id="svg_41">
   <g id="svg_23" transform="matrix(0.161705, 0, 0, 0.165118, 0.744167, -46.9932)">
    <path d="m150.000793,291.320587c80.449997,0 145.660004,65.218994 145.660004,145.660004s-65.210007,145.658997 -145.660004,145.658997s-145.658997,-65.218994 -145.658997,-145.658997s65.209999,-145.660004 145.658997,-145.660004z" fill="#0E76A8" id="svg_24"/>
    <path d="m86.420807,491.456604l27.274994,0l0,-90.910034l-27.274994,0l0,90.910034zm106.258987,-94.059021c-13.237,0 -25.080994,4.834015 -33.483002,15.503998l0,-12.653992l-27.374985,0l0,91.209991l27.374985,0l0,-49.323975c0,-10.424011 9.550003,-20.593018 21.512009,-20.593018s14.912003,10.169006 14.912003,20.338013l0,49.570007l27.274994,0l0,-51.600037c-0.001007,-35.84198 -16.970001,-42.450989 -30.216003,-42.450989zm-92.748993,-5.936005c7.538002,0 13.656006,-6.117981 13.656006,-13.655975s-6.118004,-13.655029 -13.656006,-13.655029s-13.655998,6.118011 -13.655998,13.656006s6.118004,13.654999 13.655998,13.654999z" fill="#FFFFFF" id="svg_25"/>
   </g>
   <g id="svg_26" transform="matrix(0.161705, 0, 0, 0.165118, 0.744167, -46.9932)"/>
   <g id="svg_27" transform="matrix(0.161705, 0, 0, 0.165118, 0.744167, -46.9932)"/>
   <g id="svg_28" transform="matrix(0.161705, 0, 0, 0.165118, 0.744167, -46.9932)"/>
   <g id="svg_29" transform="matrix(0.161705, 0, 0, 0.165118, 0.744167, -46.9932)"/>
   <g id="svg_30" transform="matrix(0.161705, 0, 0, 0.165118, 0.744167, -46.9932)"/>
   <g id="svg_31" transform="matrix(0.161705, 0, 0, 0.165118, 0.744167, -46.9932)"/>
   <g id="svg_32" transform="matrix(0.161705, 0, 0, 0.165118, 0.744167, -46.9932)"/>
   <g id="svg_33" transform="matrix(0.161705, 0, 0, 0.165118, 0.744167, -46.9932)"/>
   <g id="svg_34" transform="matrix(0.161705, 0, 0, 0.165118, 0.744167, -46.9932)"/>
   <g id="svg_35" transform="matrix(0.161705, 0, 0, 0.165118, 0.744167, -46.9932)"/>
   <g id="svg_36" transform="matrix(0.161705, 0, 0, 0.165118, 0.744167, -46.9932)"/>
   <g id="svg_37" transform="matrix(0.161705, 0, 0, 0.165118, 0.744167, -46.9932)"/>
   <g id="svg_38" transform="matrix(0.161705, 0, 0, 0.165118, 0.744167, -46.9932)"/>
   <g id="svg_39" transform="matrix(0.161705, 0, 0, 0.165118, 0.744167, -46.9932)"/>
   <g id="svg_40" transform="matrix(0.161705, 0, 0, 0.165118, 0.744167, -46.9932)"/>
  </g>
 </g>
</svg>