<svg xmlns="http://www.w3.org/2000/svg"><path fill="none" d="M-1-1h52v52H-1z"/><g><path d="M25 1.11c13.01 0 23.554 10.768 23.554 24.05S38.009 49.211 25 49.211 1.446 38.442 1.446 25.161 11.991 1.108 25 1.108z" fill="#0E76A8"/><path d="M14.719 34.155h4.41v-15.01h-4.41v15.01zM31.9 18.625c-2.14 0-4.055.797-5.414 2.56v-2.09H22.06v15.06h4.427v-8.144c0-1.721 1.544-3.4 3.479-3.4s2.411 1.679 2.411 3.358v8.185h4.41v-8.52c0-5.918-2.744-7.01-4.886-7.01zm-14.998-.98c1.22 0 2.209-1.011 2.209-2.256s-.99-2.254-2.209-2.254-2.208 1.01-2.208 2.254.99 2.255 2.208 2.255z" fill="#FFF"/></g></svg>