<?xml version="1.0" encoding="UTF-8" standalone="no"?>
<svg
   xmlns:dc="http://purl.org/dc/elements/1.1/"
   xmlns:cc="http://creativecommons.org/ns#"
   xmlns:rdf="http://www.w3.org/1999/02/22-rdf-syntax-ns#"
   xmlns:svg="http://www.w3.org/2000/svg"
   xmlns="http://www.w3.org/2000/svg"
   xmlns:sodipodi="http://sodipodi.sourceforge.net/DTD/sodipodi-0.dtd"
   xmlns:inkscape="http://www.inkscape.org/namespaces/inkscape"
   width="1500"
   height="595"
   version="1.1"
   id="svg706"
   sodipodi:docname="main-text-laptop.svg"
   inkscape:version="0.92.4 (5da689c313, 2019-01-14)">
  <metadata
     id="metadata712">
    <rdf:RDF>
      <cc:Work
         rdf:about="">
        <dc:format>image/svg+xml</dc:format>
        <dc:type
           rdf:resource="http://purl.org/dc/dcmitype/StillImage" />
        <dc:title></dc:title>
      </cc:Work>
    </rdf:RDF>
  </metadata>
  <defs
     id="defs710" />
  <sodipodi:namedview
     pagecolor="#ffffff"
     bordercolor="#666666"
     borderopacity="1"
     objecttolerance="10"
     gridtolerance="10"
     guidetolerance="10"
     inkscape:pageopacity="0"
     inkscape:pageshadow="2"
     inkscape:window-width="1920"
     inkscape:window-height="1051"
     id="namedview708"
     showgrid="false"
     inkscape:zoom="0.30334881"
     inkscape:cx="1532.9741"
     inkscape:cy="1317.6603"
     inkscape:window-x="-9"
     inkscape:window-y="-9"
     inkscape:window-maximized="1"
     inkscape:current-layer="g704" />
  <rect
     width="100%"
     height="100%"
     id="rect362"
     x="0"
     y="-1405"
     style="fill:none" />
  <g
     class="currentLayer"
     id="g704"
     transform="translate(42.854956,-1414.8896)">
    <path
       d="m 143.82688,1567.6796 -130.511688,154.21 12.319778,9.4 130.13215,-153.01 z"
       id="path366"
       inkscape:connector-curvature="0"
       style="fill:#9db6c9;stroke-width:1.01281464" />
    <path
       d="m 25.624712,1735.2896 c -0.882182,0 -1.768467,-0.277 -2.519348,-0.845 l -12.322856,-9.342 a 4.125741,4.022 0 0 1 -1.560232,-2.722 4.1226636,4.019 0 0 1 0.915008,-2.988 l 130.521946,-154.23 a 4.1093283,4.006 0 0 1 5.93319,-0.411 l 11.93716,10.598 a 4.1083025,4.005 0 0 1 0.39698,5.518 l -130.132146,152.97 a 4.1072767,4.004 0 0 1 -3.164573,1.446 z m -6.457369,-13.976 5.840868,4.427 125.095499,-147.04 -5.84804,-5.193 -125.08525,147.81 z"
       id="path368"
       inkscape:connector-curvature="0"
       style="fill:#305d8a;stroke-width:1.01281464" />
    <path
       d="m 16.136124,1775.2896 77.27302,146.5 h 16.433206 l -80.606845,-153.5 z"
       id="path370"
       inkscape:connector-curvature="0"
       style="fill:#9db6c9;stroke-width:1.01281464" />
    <path
       d="M 109.84235,1925.7896 H 93.412224 a 4.1103541,4.007 0 0 1 -3.65491,-2.175 l -77.274041,-146.49 a 4.1124057,4.009 0 0 1 1.677173,-5.342 l 13.09733,-7.008 a 4.1370247,4.033 0 0 1 3.185088,-0.316 4.1216378,4.018 0 0 1 2.45062,2.002 l 80.606846,153.5 a 4.1103541,4.007 0 0 1 -3.65798,5.831 z m -13.923086,-8.009 h 7.204136 l -75.617382,-144 -5.888055,3.147 74.301301,140.86 z"
       id="path372"
       inkscape:connector-curvature="0"
       style="fill:#305d8a;stroke-width:1.01281464" />
    <path
       d="m 145.28351,1449.0096 c 8.81669,8.603 8.81669,22.547 0,31.146 -8.82593,8.599 -23.12959,8.599 -31.95346,0 -8.81772,-8.599 -8.81772,-22.543 0,-31.146 8.82387,-8.599 23.12753,-8.599 31.95346,0 z"
       id="path374"
       inkscape:connector-curvature="0"
       style="fill:#9db6c9;stroke-width:1.01281464" />
    <path
       d="m 129.30165,1490.6096 c -7.13234,0 -13.83898,-2.706 -18.88178,-7.622 -10.40565,-10.147 -10.40565,-26.657 0,-36.809 5.0428,-4.916 11.74944,-7.622 18.88178,-7.622 7.13234,0 13.83898,2.706 18.88075,7.622 10.40565,10.151 10.40565,26.661 0,36.809 -5.0428,4.916 -11.74943,7.622 -18.88075,7.622 z m 0,-44.043 a 18.37914,17.917 0 0 0 -13.07374,5.275 c -7.20004,7.027 -7.20004,18.461 0,25.484 a 18.377089,17.915 0 0 0 13.07374,5.275 c 4.93714,0 9.57886,-1.874 13.07271,-5.275 7.20107,-7.023 7.20107,-18.457 0,-25.484 a 18.377089,17.915 0 0 0 -13.07271,-5.275 z"
       id="path376"
       inkscape:connector-curvature="0"
       style="fill:#305d8a;stroke-width:1.01281464" />
    <path
       d="m 270.64572,1547.6496 c 15.49974,15.114 15.49974,39.617 0,54.73 -15.49974,15.106 -40.63886,15.11 -56.14167,0 -15.49974,-15.114 -15.49564,-39.621 0,-54.73 15.50384,-15.11 40.64193,-15.11 56.14167,0 z"
       id="path378"
       inkscape:connector-curvature="0"
       style="fill:#ffffff;stroke-width:1.01281464" />
    <path
       d="m 242.58001,1617.7096 c -11.70122,0 -22.70388,-4.442 -30.97485,-12.505 -17.07639,-16.651 -17.07639,-43.742 0,-60.393 8.27507,-8.063 19.27363,-12.505 30.97485,-12.505 11.70533,0 22.70389,4.442 30.97486,12.505 17.07638,16.651 17.07638,43.742 0,60.393 -8.27097,8.063 -19.27363,12.505 -30.97486,12.505 z m 0,-77.395 c -9.50705,0 -18.44376,3.609 -25.16681,10.159 -13.87078,13.526 -13.87078,35.542 0,49.068 6.72305,6.55 15.65976,10.16 25.16681,10.16 9.50706,0 18.44377,-3.609 25.16682,-10.16 13.87078,-13.526 13.87078,-35.542 0,-49.068 -6.71895,-6.55 -15.65566,-10.159 -25.16682,-10.159 z"
       id="path380"
       inkscape:connector-curvature="0"
       style="fill:#305d8a;stroke-width:1.01281464" />
    <rect
       transform="rotate(-45.001,430.212,828.736)"
       x="390.20999"
       y="814.75"
       id="rect382"
       width="0"
       height="0"
       style="fill:#9db6c9" />
    <path
       d="m 116.23304,1512.4796 a 4.0949672,3.992 0 0 1 -2.90402,-1.173 l -20.329166,-19.818 a 4.1062509,4.003 0 0 1 0,-5.662 l 58.091696,-56.631 a 4.1093283,4.006 0 0 1 5.80804,0 l 20.32918,19.822 a 4.1062509,4.003 0 0 1 0,5.662 l -58.09171,56.627 a 4.0929156,3.99 0 0 1 -2.90402,1.173 z m -14.52113,-23.822 14.52113,14.156 52.28367,-50.965 -14.52114,-14.16 z"
       id="path384"
       inkscape:connector-curvature="0"
       style="fill:#305d8a;stroke-width:1.01281464" />
    <path
       d="m 307.93331,1536.7896 -104.56938,101.93 -107.462106,-127.42 81.324896,-79.28 z"
       id="path386"
       inkscape:connector-curvature="0"
       style="fill:#9db6c9;stroke-width:1.01281464" />
    <path
       d="m 203.36393,1641.4896 h -0.20003 c -1.15504,0 -2.23418,0.032 -2.97172,-0.844 l -107.462116,-127.11 c -1.34481,-1.591 -1.22787,-3.758 0.26876,-5.216 l 81.324896,-79.206 c 1.49971,-1.455 3.89084,-1.529 5.51159,-0.223 l 130.70659,104.78 a 4.1339474,4.03 0 0 1 1.49664,2.905 4.1288184,4.025 0 0 1 -1.19916,3.035 l -104.55912,101.32 c -0.77037,0.755 -1.8177,0.559 -2.90504,0.559 z m -101.92591,-129.92 102.22339,121.2 98.16022,-95.692 -124.32616,-99.653 -76.05334,74.141 z"
       id="path388"
       inkscape:connector-curvature="0"
       style="fill:#305d8a;stroke-width:1.01281464" />
    <path
       d="m 252.74563,1584.9196 48.89957,-47.66 -124.14152,-99.83 -38.03642,37.06 z m -124.89856,-121.744 26.14132,-25.484 5.80907,5.663 -26.14132,25.483 z m 4.84996,-16.046 c 0,0 -11.86946,-3.136 -20.09632,8.932 0,0 6.29837,-1.146 9.44653,1.45 z m 105.15408,163.16 6.18553,0.12 31.94321,-31.15 2.90299,-2.83 -0.24619,-5.42 -40.41626,39.4"
       id="path390"
       inkscape:connector-curvature="0"
       style="opacity:0.2;fill:#9db6c9;stroke-width:1.01281464" />
    <path
       d="m 45.012208,1746.7896 c 0,15.721 -13.072711,28.461 -29.198184,28.461 -16.125472,0 -29.198182,-12.74 -29.198182,-28.461 0,-15.724 13.07271,-28.468 29.198182,-28.468 16.125473,0 29.198184,12.744 29.198184,28.468 z"
       id="path392"
       inkscape:connector-curvature="0"
       style="fill:#9db6c9;stroke-width:1.01281464" />
    <path
       d="m 15.80787,1779.2896 c -18.363754,0 -33.30546,-14.563 -33.30546,-32.465 0,-17.905 14.941706,-32.472 33.30546,-32.472 18.363753,0 33.30546,14.566 33.30546,32.472 0,17.902 -14.941707,32.465 -33.30546,32.465 z m 0,-56.928 c -13.834876,0 -25.089881,10.972 -25.089881,24.463 0,13.484 11.256031,24.456 25.089881,24.456 13.833849,0 25.090906,-10.972 25.090906,-24.456 0,-13.492 -11.256031,-24.463 -25.090906,-24.463 z"
       id="path394"
       inkscape:connector-curvature="0"
       style="fill:#305d8a;stroke-width:1.01281464" />
    <path
       d="m 15.366779,1722.3896 v 48.919 c 12.322856,0 25.08988,-10.949 25.08988,-24.456 10e-4,-13.514 -12.767024,-24.463 -25.08988,-24.463 z"
       id="path396"
       inkscape:connector-curvature="0"
       style="opacity:0.2;fill:#9db6c9;stroke-width:1.01281464" />
    <path
       d="m 29.235505,1746.7896 c 0,7.223 -6.009097,13.081 -13.421481,13.081 -7.412383,0 -13.42148,-5.858 -13.42148,-13.081 0,-7.229 6.009097,-13.088 13.42148,-13.088 7.412384,0 13.421481,5.858 13.421481,13.088 z"
       id="path398"
       inkscape:connector-curvature="0"
       style="fill:#9db6c9;stroke-width:1.01281464" />
    <path
       d="m 15.80787,1763.8896 c -9.667077,0 -17.528758,-7.664 -17.528758,-17.085 0,-9.424 7.862707,-17.092 17.528758,-17.092 9.667077,0 17.529783,7.668 17.529783,17.092 0,9.421 -7.862706,17.085 -17.529783,17.085 z m 0,-26.168 c -5.134096,0 -9.314204,4.074 -9.314204,9.083 0,5.006 4.180108,9.077 9.314204,9.077 5.134096,0 9.314204,-4.071 9.314204,-9.077 0,-5.009 -4.180108,-9.083 -9.314204,-9.083 z"
       id="path400"
       inkscape:connector-curvature="0"
       style="fill:#305d8a;stroke-width:1.01281464" />
    <path
       d="m 190.43894,2005.8896 a 81.349519,79.304 0 0 0 1.54792,-15.281 c 0,-43.531 -36.1982,-78.819 -80.85201,-78.819 -44.653813,0 -80.855087,35.288 -80.855087,78.819 0,5.231 0.549825,10.335 1.547922,15.281 H 190.43586 Z"
       id="path402"
       inkscape:connector-curvature="0"
       style="fill:#9db6c9;stroke-width:1.01281464" />
    <path
       d="M 190.43894,2009.8896 H 31.830762 a 4.1124057,4.009 0 0 1 -4.031368,-3.23 85.462951,83.314 0 0 1 -1.624856,-16.056 c 0,-45.671 38.115405,-82.823 84.963392,-82.823 46.84798,0 84.95928,37.152 84.95928,82.823 0,5.29 -0.54572,10.69 -1.62383,16.052 a 4.1093283,4.006 0 0 1 -4.03239,3.234 z m -155.161512,-8.009 H 186.98201 a 76.575477,74.65 0 0 0 0.89449,-11.277 c 0,-41.251 -34.4287,-74.814 -76.74473,-74.814 -42.319104,0 -76.747808,33.563 -76.747808,74.814 0,3.726 0.300558,7.507 0.890389,11.277 z"
       id="path404"
       inkscape:connector-curvature="0"
       style="fill:#305d8a;stroke-width:1.01281464" />
    <path
       d="m 111.13485,1911.7896 c -13.634846,0 -26.458286,3.324 -37.729707,9.131 4.268331,-0.677 8.620771,-1.123 13.085021,-1.123 44.653806,0 80.850986,35.288 80.850986,78.819 0,2.456 -0.14362,4.876 -0.37647,7.273 h 23.47426 a 81.349519,79.304 0 0 0 1.54792,-15.281 c 0,-43.531 -36.1982,-78.819 -80.85201,-78.819 z m 34.98981,-335.03 -118.212428,139.83 3.549245,1.8 117.227663,-138.29 z m -117.06354,199.83 -3.251765,1.4 69.487249,131.8 h 3.76466 z"
       id="path406"
       inkscape:connector-curvature="0"
       style="opacity:0.2;fill:#9db6c9;stroke-width:1.01281464" />
    <path
       d="m 1319.3348,1584.3196 c -7.2677,14.003 -23.3132,20.35 -35.8402,14.167 -12.5177,-6.174 -16.7819,-22.54 -9.5101,-36.543 7.2688,-14.007 23.3153,-20.35 35.8371,-14.171 12.526,6.179 16.783,22.539 9.5132,36.547 z"
       id="path408"
       inkscape:connector-curvature="0"
       style="fill:#afddb5;stroke-width:1.01281464" />
    <path
       d="m 1293.69,1604.8496 c -4.2765,0 -8.352,-0.938 -12.1187,-2.796 -7.1272,-3.52 -12.2049,-9.882 -14.2986,-17.925 -2.0423,-7.841 -0.9837,-16.365 2.9789,-24.002 5.9055,-11.375 17.3852,-18.731 29.2475,-18.731 4.2755,0 8.352,0.942 12.1105,2.796 14.5242,7.164 19.607,25.973 11.3268,41.927 -5.9086,11.38 -17.3852,18.731 -29.2464,18.731 z m 5.808,-55.446 c -8.792,0 -17.3933,5.631 -21.914,14.339 -3.0681,5.909 -3.9031,12.451 -2.3501,18.415 1.5008,5.764 5.0695,10.292 10.0487,12.748 2.6035,1.287 5.4316,1.936 8.4074,1.936 8.7921,0 17.3923,-5.627 21.913,-14.335 6.2378,-12.017 2.7799,-25.997 -7.7027,-31.166 -2.6014,-1.284 -5.4295,-1.937 -8.4023,-1.937 z"
       id="path410"
       inkscape:connector-curvature="0"
       style="fill:#305d8a;stroke-width:1.01281464" />
    <path
       d="m 1309.795,1547.7696 c -0.5119,-0.254 -1.0423,-0.454 -1.5634,-0.665 3.3062,7.418 3.1533,16.732 -1.2432,25.199 -6.9713,13.429 -22.0012,19.783 -34.2728,14.833 2.1654,4.856 5.8009,8.908 10.7534,11.348 12.528,6.183 28.5724,-0.164 35.8402,-14.167 7.2708,-14.009 3.0138,-30.369 -9.5142,-36.548 z"
       id="path412"
       inkscape:connector-curvature="0"
       style="opacity:0.38000039;fill:#9db6c9;stroke-width:1.01281464" />
    <path
       d="m 1296.87,1596.3196 c 16.6301,30.892 7.8216,67.334 -19.6717,81.399 -27.5025,14.065 -63.2668,0.422 -79.8929,-30.47 -16.6312,-30.889 -7.8268,-67.33 19.6717,-81.4 27.4974,-14.065 63.2627,-0.421 79.8929,30.471 z"
       id="path414"
       inkscape:connector-curvature="0"
       style="fill:#afddb5;stroke-width:1.01281464" />
    <path
       d="m 1253.9918,1687.2896 c -24.1113,0 -47.7548,-14.978 -60.2295,-38.155 -8.5038,-15.793 -11.0149,-33.473 -7.0718,-49.787 3.9914,-16.518 14.1026,-29.668 28.4719,-37.02 7.7817,-3.981 16.2619,-5.999 25.2058,-5.999 24.1123,0 47.7558,14.977 60.2346,38.154 8.4997,15.794 11.015,33.478 7.0718,49.788 -3.9954,16.521 -14.1036,29.669 -28.4719,37.021 -7.7817,3.98 -16.265,5.998 -25.2109,5.998 z m -13.6225,-122.95 c -7.6001,0 -14.7971,1.712 -21.3878,5.083 -12.2306,6.257 -20.8595,17.539 -24.297,31.765 -3.4856,14.434 -1.232,30.142 6.3538,44.227 11.0714,20.573 31.8581,33.868 52.9525,33.868 7.6011,0 14.8022,-1.712 21.3919,-5.083 12.2264,-6.253 20.8554,-17.535 24.2928,-31.761 3.4897,-14.437 1.2361,-30.146 -6.3497,-44.23 -11.0744,-20.573 -31.8611,-33.869 -52.9565,-33.869 z"
       id="path416"
       inkscape:connector-curvature="0"
       style="fill:#305d8a;stroke-width:1.01281464" />
    <path
       d="m 1296.87,1596.3196 c -16.6302,-30.893 -52.3955,-44.536 -79.8929,-30.47 -1.0402,0.532 -1.9932,1.153 -2.981,1.748 23.3348,1.999 45.2919,19.529 53.7998,45.564 8.95,27.389 0.1928,55.517 -19.7034,69.727 9.9481,1.057 19.9804,-0.5 29.1058,-5.169 27.4933,-14.066 36.3018,-50.508 19.6717,-81.4 z"
       id="path418"
       inkscape:connector-curvature="0"
       style="opacity:0.38000039;fill:#9db6c9;stroke-width:1.01281464" />
    <ellipse
       transform="matrix(0.95025679,0.31146755,-0.32605081,0.94535225,0,0)"
       cx="1707.8146"
       cy="1295.4574"
       rx="34.825748"
       ry="23.085014"
       id="ellipse420"
       style="fill:#afddb5;stroke-width:1.01287448" />
    <path
       d="m 1208.344,1784.9896 c -5.5588,0 -11.2119,-0.932 -16.7984,-2.762 -20.7436,-6.8 -33.1085,-23.377 -28.156,-37.743 3.459,-10.03 14.5817,-16.26 29.0228,-16.26 5.5588,0 11.2119,0.931 16.7994,2.761 20.7426,6.801 33.1075,23.377 28.155,37.744 -3.459,10.029 -14.5817,16.26 -29.0228,16.26 z m -15.9326,-48.756 c -10.6385,0 -18.97,4.238 -21.2319,10.801 -3.3738,9.775 7.1518,22.414 22.9798,27.6 4.7453,1.557 9.5142,2.346 14.1837,2.346 10.6385,0 18.97,-4.238 21.2318,-10.8 3.3739,-9.776 -7.1528,-22.415 -22.9798,-27.601 -4.7443,-1.556 -9.5142,-2.346 -14.1836,-2.346 z"
       id="path422"
       inkscape:connector-curvature="0"
       style="fill:#305d8a;stroke-width:1.01281464" />
    <path
       d="m 1207.9337,1734.7896 c -18.2756,-5.99 -36.4629,-1.075 -40.6184,10.977 -0.558,1.619 -0.8145,3.289 -0.8309,4.975 7.834,-3.188 18.4561,-3.434 29.1254,0.066 15.8218,5.186 26.5044,16.842 26.3988,27.697 5.5834,-2.272 9.7645,-6.029 11.4919,-11.043 4.1566,-12.052 -7.2882,-26.682 -25.5668,-32.672 z"
       id="path424"
       inkscape:connector-curvature="0"
       style="opacity:0.38000039;fill:#9db6c9;stroke-width:1.01281464" />
    <path
       d="m 1421.8116,1656.4896 c 8.3592,12.361 -0.056,32.156 -18.8049,44.212 -18.7443,12.056 -40.727,11.802 -49.0893,-0.56 -8.3592,-12.36 0.056,-32.158 18.8007,-44.211 18.7526,-12.056 40.7261,-11.806 49.0935,0.559 z"
       id="path426"
       inkscape:connector-curvature="0"
       style="fill:#afddb5;stroke-width:1.01281464" />
    <path
       d="m 1375.0354,1713.5896 c -10.9114,0 -19.6193,-3.993 -24.5257,-11.238 -9.5953,-14.191 -0.637,-36.512 19.9681,-49.76 9.5717,-6.151 20.3179,-9.542 30.2619,-9.542 10.9114,0 19.6194,3.993 24.5247,11.238 9.5953,14.188 0.634,36.508 -19.9732,49.76 -9.5666,6.152 -20.3128,9.542 -30.2558,9.542 z m 25.7033,-62.531 c -8.352,0 -17.4939,2.917 -25.7371,8.22 -16.542,10.633 -24.617,28.339 -17.6324,38.662 3.3328,4.928 9.6066,7.641 17.6662,7.641 8.3551,0 17.4929,-2.921 25.732,-8.22 16.543,-10.637 24.617,-28.343 17.6375,-38.662 -3.3338,-4.928 -9.6076,-7.641 -17.6662,-7.641 z"
       id="path428"
       inkscape:connector-curvature="0"
       style="fill:#305d8a;stroke-width:1.01281464" />
    <path
       d="m 1421.8116,1656.4896 c -1.9049,-2.815 -4.5412,-4.97 -7.6617,-6.526 4.4684,13.93 -8.6997,30.725 -29.7305,37.717 -12.2911,4.087 -24.5503,3.902 -33.6635,0.324 -0.2154,4.419 0.7622,8.587 3.1615,12.138 8.3623,12.361 30.345,12.615 49.0893,0.56 18.7485,-12.057 27.1641,-31.852 18.8049,-44.213 z"
       id="path430"
       inkscape:connector-curvature="0"
       style="opacity:0.38000039;fill:#9db6c9;stroke-width:1.01281464" />
    <ellipse
       cx="1296.9725"
       cy="1746.5896"
       rx="90.366241"
       ry="107.11"
       id="ellipse432"
       style="fill:#afddb5;stroke-width:1.01281464" />
    <path
       d="m 1296.9725,1857.6896 c -52.0949,0 -94.4745,-49.847 -94.4745,-111.12 0,-61.273 42.3786,-111.12 94.4745,-111.12 52.096,0 94.4746,49.846 94.4746,111.12 0,61.274 -42.3796,111.12 -94.4746,111.12 z m 0,-214.23 c -47.5619,0 -86.2589,46.257 -86.2589,103.11 0,56.854 38.697,103.11 86.2589,103.11 47.562,0 86.259,-46.256 86.259,-103.11 0,-56.853 -38.697,-103.11 -86.259,-103.11 z"
       id="path434"
       inkscape:connector-curvature="0"
       style="fill:#305d8a;stroke-width:1.01281464" />
    <path
       d="m 1296.9725,1639.4896 c -6.3383,0 -12.5146,0.782 -18.4837,2.252 41.043,10.113 71.8814,53.213 71.8814,104.86 0,51.647 -30.8384,94.75 -71.8814,104.86 a 75.233739,73.342 0 0 0 18.4837,2.252 c 49.909,0 90.3663,-47.957 90.3663,-107.11 0,-59.153 -40.4573,-107.11 -90.3663,-107.11 z"
       id="path436"
       inkscape:connector-curvature="0"
       style="opacity:0.38000039;fill:#9db6c9;stroke-width:1.01281464" />
    <path
       d="m 1403.7576,1983.1896 c 0,12.537 -10.4292,22.7 -23.2896,22.7 h -162.9062 c -12.8594,0 -23.2896,-10.163 -23.2896,-22.7 l -20.5375,-146.81 c 0,-12.536 10.4303,-22.699 23.2897,-22.699 h 203.979 c 12.8603,0 23.2896,10.163 23.2896,22.699 l -20.5385,146.81 z"
       id="path438"
       inkscape:connector-curvature="0"
       style="fill:#e4c6aa;stroke-width:1.01281464" />
    <path
       d="m 1380.4721,2009.8896 h -162.9062 c -15.0105,0 -27.241,-11.825 -27.3969,-26.423 l -20.5015,-146.55 a 4.3062807,4.198 0 0 1 -0.036,-0.54 c 0,-14.727 12.29,-26.704 27.3969,-26.704 h 203.979 c 15.1068,0 27.3969,11.978 27.3969,26.704 0,0.181 -0.012,0.364 -0.036,0.54 l -20.5005,146.55 c -0.158,14.597 -12.3885,26.423 -27.399,26.423 z m -202.625,-173.77 20.5016,146.52 c 0.024,0.176 0.036,0.359 0.036,0.539 0,10.309 8.6043,18.696 19.1813,18.696 h 162.9062 c 10.579,0 19.1824,-8.388 19.1824,-18.696 0,-0.18 0.011,-0.363 0.036,-0.539 l 20.5015,-146.52 c -0.1447,-10.191 -8.6936,-18.438 -19.1824,-18.438 h -203.979 c -10.4887,-10e-4 -19.0367,8.247 -19.1803,18.438 z"
       id="path440"
       inkscape:connector-curvature="0"
       style="fill:#305d8a;stroke-width:1.01281464" />
    <path
       d="m 1400.988,1813.6896 h -20.5374 c 12.8603,0 23.2896,10.163 23.2896,22.699 l -20.5374,146.81 c 0,12.537 -10.4293,22.7 -23.2896,22.7 h 20.5374 c 12.8603,0 23.2896,-10.163 23.2896,-22.7 l 20.5374,-146.81 c 0,-12.536 -10.4292,-22.699 -23.2896,-22.699 z"
       id="path442"
       inkscape:connector-curvature="0"
       style="opacity:0.38000039;fill:#aa9e80;stroke-width:1.01281464" />
    <path
       d="m 1128.5373,1951.1896 c 0,12.537 -10.4293,22.7 -23.2897,22.7 H 350.8484 c -12.86037,0 -23.28961,-10.163 -23.28961,-22.7 v -495.18 c 0,-12.537 10.42924,-22.7 23.28961,-22.7 h 754.3992 c 12.8604,0 23.2897,10.163 23.2897,22.7 z"
       id="path444"
       inkscape:connector-curvature="0"
       style="fill:#ffffff;stroke-width:1.01281464" />
    <path
       d="M 1105.2518,1977.8896 H 350.85251 c -15.10686,0 -27.39689,-11.979 -27.39689,-26.705 v -495.18 c 0,-14.727 12.29003,-26.705 27.39689,-26.705 h 754.39929 c 15.1068,0 27.3979,11.978 27.3979,26.705 v 495.18 c 10e-4,14.726 -12.2911,26.704 -27.3969,26.704 z m -754.39929,-540.58 c -10.57799,0 -19.18234,8.388 -19.18234,18.696 v 495.18 c 0,10.308 8.60435,18.696 19.18234,18.696 h 754.39929 c 10.5779,0 19.1823,-8.389 19.1823,-18.696 v -495.18 c 0,-10.308 -8.6054,-18.696 -19.1823,-18.696 z"
       id="path446"
       inkscape:connector-curvature="0"
       style="fill:#305d8a;stroke-width:1.01281464" />
    <path
       d="m 1101.1486,1433.2696 h -7.517 c 10.2087,0 18.4848,8.067 18.4848,18.019 v 490.52 h 12.3228 v -485.84 c -10e-4,-12.538 -10.4303,-22.7 -23.2906,-22.7 z m -21.952,397.72 c 0,12.537 -10.4292,22.699 -23.2896,22.699 H 400.09674 c -12.86037,0 -23.28961,-10.162 -23.28961,-22.699 v -343.02 c 0,-12.537 10.42924,-22.7 23.28961,-22.7 H 1055.907 c 12.8604,0 23.2896,10.164 23.2896,22.7 z"
       id="path448"
       inkscape:connector-curvature="0"
       style="opacity:0.2;fill:#9db6c9;stroke-width:1.01281464" />
    <path
       d="m 1079.1966,1943.0896 c 0,12.536 -10.4292,22.7 -23.2896,22.7 H 400.09674 c -12.86037,0 -23.28961,-10.164 -23.28961,-22.7 v -443.12 c 0,-12.537 10.42924,-22.7 23.28961,-22.7 H 1055.907 c 12.8604,0 23.2896,10.163 23.2896,22.7 z"
       id="path450"
       inkscape:connector-curvature="0"
       style="fill:#efefef;stroke-width:1.01281464" />
    <path
       d="M 1055.9111,1969.8896 H 400.10085 c -15.10686,0 -27.39689,-11.978 -27.39689,-26.704 v -443.12 c 0,-14.727 12.29003,-26.704 27.39689,-26.704 h 655.81025 c 15.1068,0 27.3969,11.978 27.3969,26.704 v 443.12 c 0,14.727 -12.2911,26.705 -27.3969,26.705 z m -655.81025,-488.52 c -10.57798,0 -19.18131,8.388 -19.18131,18.695 v 443.12 c 0,10.308 8.60435,18.695 19.18131,18.695 h 655.81025 c 10.578,0 19.1813,-8.388 19.1813,-18.695 v -443.12 c 0,-10.308 -8.6044,-18.695 -19.1813,-18.695 z"
       id="path452"
       inkscape:connector-curvature="0"
       style="fill:#305d8a;stroke-width:1.01281464" />
    <path
       d="M 1054.8853,1481.3196 H 611.46557 l 463.63813,316.34 v -293.64 c 0,-17.022 -8.8126,-22.7 -20.2174,-22.7 z"
       id="path454"
       inkscape:connector-curvature="0"
       style="opacity:0.41000001;fill:#ffffff;stroke-width:1.01281464" />
    <path
       d="M 1266.9168,1945.7896 H 193.21884 c -12.86038,0 -18.76074,10.691 -15.07404,22.7 1.22685,4.005 3.73902,13.3 4.79764,17.347 3.18098,12.146 13.84718,20.018 26.70755,20.018 H 1250.5226 c 12.8603,0 23.5265,-7.872 26.7075,-20.018 1.0586,-4.047 3.5698,-13.342 4.7977,-17.347 3.6856,-12.008 -2.2147,-22.7 -15.0751,-22.7 z"
       id="path456"
       inkscape:connector-curvature="0"
       style="fill:#ffffff;stroke-width:1.01281464" />
    <path
       d="M 1250.5041,2009.8896 H 209.63153 c -14.74578,0 -27.07992,-9.256 -30.68661,-23.033 -1.01861,-3.887 -3.53796,-13.226 -4.75353,-17.19 -2.35522,-7.66 -1.36738,-15.117 2.70707,-20.447 3.6467,-4.774 9.43525,-7.402 16.30191,-7.402 H 1266.8983 c 6.8667,0 12.6552,2.628 16.3019,7.402 4.0765,5.33 5.0633,12.787 2.7081,20.451 -1.2155,3.961 -3.7349,13.3 -4.7535,17.187 -3.6046,13.776 -15.9388,23.032 -30.6856,23.032 z m -1057.28526,-60.065 c -4.26833,0 -7.62575,1.443 -9.71529,4.177 -2.50704,3.28 -3.02404,8.156 -1.4238,13.369 1.26377,4.129 3.77902,13.44 4.84174,17.507 2.70809,10.327 11.62942,17.003 22.7285,17.003 H 1250.5226 c 11.1001,0 20.0214,-6.676 22.7285,-17.003 1.0627,-4.066 3.5779,-13.378 4.8417,-17.503 1.6013,-5.217 1.0832,-10.093 -1.4238,-13.373 -2.0906,-2.733 -5.448,-4.177 -9.7163,-4.177 H 193.25474 Z"
       id="path458"
       inkscape:connector-curvature="0"
       style="fill:#305d8a;stroke-width:1.01281464" />
    <path
       d="M 798.43697,1945.7896 H 615.10714 v 13.339 c 0,12.537 10.42924,22.7 23.28961,22.7 h 179.33949 c 12.85935,0 23.28859,-10.163 23.28859,-22.7 v -13.339 z"
       id="path460"
       inkscape:connector-curvature="0"
       style="opacity:0.2;fill:#9db6c9;stroke-width:1.01281464" />
    <path
       d="M 798.43697,1945.7896 H 619.39496 c 1.36328,11.271 11.1832,20.022 23.11317,20.022 h 171.12289 c 11.92998,0 21.74887,-8.752 23.11318,-20.022 h -38.30518 z"
       id="path462"
       inkscape:connector-curvature="0"
       style="fill:#9db6c9;stroke-width:1.01281464" />
    <path
       d="M 813.61871,1969.8896 H 642.49582 c -13.87488,0 -25.5679,-10.129 -27.19275,-23.557 a 4.1072767,4.004 0 0 1 4.07958,-4.474 h 217.34513 c 1.17146,0 2.28957,0.489 3.06815,1.345 a 4.0939414,3.991 0 0 1 1.01041,3.129 c -1.62383,13.428 -13.31685,23.557 -27.19173,23.557 z m -189.03324,-20.022 c 2.7717,7.085 9.80761,12.013 17.90625,12.013 h 171.12289 c 8.09966,0 15.13455,-4.928 17.90727,-12.013 H 624.58855 Z"
       id="path464"
       inkscape:connector-curvature="0"
       style="fill:#305d8a;stroke-width:1.01281464" />
    <path
       d="m 186.5204,1989.8896 c 4.92586,7.478 13.39379,12.014 23.14088,12.014 H 1250.5338 c 9.7482,0 18.2161,-4.536 23.1419,-12.014 H 186.53989 Z"
       id="path466"
       inkscape:connector-curvature="0"
       style="opacity:0.2;fill:#9db6c9;stroke-width:1.01281464" />
    <path
       d="M 1055.9111,1477.3096 H 400.10085 c -12.86038,0 -23.28962,10.163 -23.28962,22.7 v 12.013 c 0,-12.537 10.42924,-22.7 23.28962,-22.7 h 655.81025 c 12.8604,0 23.2896,10.164 23.2896,22.7 v -12.013 c 0,-12.537 -10.4292,-22.7 -23.2896,-22.7 z"
       id="path468"
       inkscape:connector-curvature="0"
       style="opacity:0.33000004;fill:#9db6c9;stroke-width:1.01281464" />
    <path
       d="m 327.53622,1933.7896 h 784.54728 v 8.009 H 327.53622 Z"
       id="path470"
       inkscape:connector-curvature="0"
       style="opacity:0.2;fill:#9db6c9;stroke-width:1.01281464" />
    <ellipse
       cx="730.11908"
       cy="1453.7896"
       id="circle472"
       style="fill:#305d8a;stroke-width:1.01281464"
       rx="4.6211991"
       ry="4.5050001" />
    <path
       d="m 1095.6093,1433.4696 c 0.6821,-0.078 1.3479,-0.203 2.0536,-0.203 h -2.0536 z"
       id="path474"
       inkscape:connector-curvature="0"
       style="opacity:0.2;fill:#9db6c9;stroke-width:1.01281464" />
    <path
       d="m 1510.5427,2009.8896 h -20.5374 c -2.2701,0 -4.1083,-1.792 -4.1083,-4.005 0,-2.213 1.8382,-4.004 4.1083,-4.004 h 20.5374 c 2.2711,0 4.1083,1.791 4.1083,4.004 0,2.213 -1.8372,4.005 -4.1083,4.005 z m -53.3977,0 h -32.8602 c -2.2711,0 -4.1073,-1.792 -4.1073,-4.005 0,-2.213 1.8362,-4.004 4.1073,-4.004 h 32.8602 c 2.2701,0 4.1073,1.791 4.1073,4.004 0,2.213 -1.8382,4.005 -4.1073,4.005 z"
       id="path476"
       inkscape:connector-curvature="0"
       style="fill:#305d8a;stroke-width:1.01281464" />
    <path
       d="M 1424.2735,2009.8896 H 81.099624 c -2.27009,0 -4.10728,-1.792 -4.10728,-4.005 0,-2.213 1.83719,-4.004 4.10728,-4.004 H 1424.2735 c 2.2711,0 4.1073,1.791 4.1073,4.004 0,2.213 -1.8362,4.005 -4.1073,4.005 z"
       id="path478"
       inkscape:connector-curvature="0"
       style="fill:#305d8a;stroke-width:1.01281464" />
    <path
       d="m 77.016964,2009.8896 c -2.26598,0 -4.127795,-1.792 -4.127795,-4.005 0,-2.213 1.81668,-4.004 4.087785,-4.004 h 0.04 c 2.27008,0 4.10728,1.791 4.10728,4.004 0,2.213 -1.8372,4.005 -4.10728,4.005 z m -32.900274,0 H 11.255399 c -2.270081,0 -4.107277,-1.792 -4.107277,-4.005 0,-2.213 1.837196,-4.004 4.107277,-4.004 H 44.11669 c 2.270081,0 4.107277,1.791 4.107277,4.004 0,2.213 -1.837196,4.005 -4.107277,4.005 z m -65.720531,0 h -32.861291 c -2.270081,0 -4.107277,-1.792 -4.107277,-4.005 0,-2.213 1.837196,-4.004 4.107277,-4.004 h 32.861291 c 2.270081,0 4.107277,1.791 4.107277,4.004 0,2.213 -1.838222,4.005 -4.107277,4.005 z"
       id="path480"
       inkscape:connector-curvature="0"
       style="fill:#305d8a;stroke-width:1.01281464" />
    <path
       d="m 1309.3846,1577.1296 22.4649,10.3"
       id="path482"
       inkscape:connector-curvature="0"
       style="fill:#ffffff;stroke-width:1.01281464" />
    <path
       d="m 1331.8495,1591.4396 c -0.5847,0 -1.1827,-0.121 -1.7479,-0.383 l -22.4085,-10.3 a 4.1103541,4.007 0 0 1 -1.9613,-5.33 4.1000962,3.997 0 0 1 5.4675,-1.912 l 22.4084,10.3 a 4.1093283,4.006 0 0 1 -1.7582,7.625 z"
       id="path484"
       inkscape:connector-curvature="0"
       style="fill:#305d8a;stroke-width:1.01281464" />
    <path
       d="m 1296.6648,1545.5996 -1.231,-14.23"
       id="path486"
       inkscape:connector-curvature="0"
       style="fill:#ffffff;stroke-width:1.01281464" />
    <path
       d="m 1296.6648,1549.6096 a 4.1021478,3.999 0 0 1 -4.0868,-3.671 l -1.2196,-14.23 a 4.101122,3.998 0 0 1 3.7503,-4.321 c 2.307,-0.262 4.2447,1.451 4.4324,3.656 l 1.2187,14.23 a 4.101122,3.998 0 0 1 -4.095,4.336 z"
       id="path488"
       inkscape:connector-curvature="0"
       style="fill:#305d8a;stroke-width:1.01281464" />
    <path
       d="m 1283.1243,1560.3096 -19.0797,-10.7"
       id="path490"
       inkscape:connector-curvature="0"
       style="fill:#ffffff;stroke-width:1.01281464" />
    <path
       d="m 1283.1243,1564.3096 c -0.6975,0 -1.4002,-0.172 -2.0495,-0.536 l -19.0254,-10.699 a 4.1083025,4.005 0 1 1 4.1073,-6.937 l 19.0264,10.699 a 4.1083025,4.005 0 0 1 -2.0588,7.473 z"
       id="path492"
       inkscape:connector-curvature="0"
       style="fill:#305d8a;stroke-width:1.01281464" />
    <path
       d="m 1322.8225,1560.3096 9.027,-1.35"
       id="path494"
       inkscape:connector-curvature="0"
       style="fill:#ffffff;stroke-width:1.01281464" />
    <path
       d="m 1322.8225,1564.3096 a 4.1072767,4.004 0 0 1 -0.6175,-7.961 l 8.9849,-1.345 a 4.1031736,4 0 0 1 4.6807,3.352 4.1041994,4.001 0 0 1 -3.4374,4.563 l -8.986,1.345 c -0.2082,0.03 -0.4205,0.046 -0.6247,0.046 z"
       id="path496"
       inkscape:connector-curvature="0"
       style="fill:#305d8a;stroke-width:1.01281464" />
    <path
       d="m 1331.8495,1715.5896 13.8482,-15.5"
       id="path498"
       inkscape:connector-curvature="0"
       style="fill:#ffffff;stroke-width:1.01281464" />
    <path
       d="m 1331.8495,1719.5896 a 4.1062509,4.003 0 0 1 -3.0887,-6.643 l 13.8954,-15.455 a 4.1073657,4.0040867 0 0 1 6.1763,5.28 l -13.8943,15.453 a 4.0970188,3.994 0 0 1 -3.0887,1.365 z"
       id="path500"
       inkscape:connector-curvature="0"
       style="fill:#305d8a;stroke-width:1.01281464" />
    <path
       d="m 1401.706,1683.2896 22.5675,16.8"
       id="path502"
       inkscape:connector-curvature="0"
       style="fill:#ffffff;stroke-width:1.01281464" />
    <path
       d="m 1424.2735,1704.0896 a 4.0918898,3.989 0 0 1 -2.4917,-0.825 l -22.591,-16.857 a 4.1041994,4.001 0 0 1 -0.7652,-5.612 4.1083025,4.005 0 0 1 5.7557,-0.747 l 22.591,16.858 a 4.1031736,4 0 0 1 0.7653,5.611 4.0888125,3.986 0 0 1 -3.2641,1.572 z"
       id="path504"
       inkscape:connector-curvature="0"
       style="fill:#305d8a;stroke-width:1.01281464" />
    <path
       d="m 1395.2435,1704.8896 2.3594,6.7"
       id="path506"
       inkscape:connector-curvature="0"
       style="fill:#ffffff;stroke-width:1.01281464" />
    <path
       d="m 1397.6029,1715.5896 a 4.1103541,4.007 0 0 1 -3.8837,-2.701 l -2.346,-6.656 a 4.1031736,4 0 0 1 2.5471,-5.088 4.1021478,3.999 0 0 1 5.2182,2.483 l 2.347,6.656 a 4.1031736,4 0 0 1 -3.8826,5.306 z"
       id="path508"
       inkscape:connector-curvature="0"
       style="fill:#305d8a;stroke-width:1.01281464" />
    <path
       d="m 1375.2406,1662.9896 -5.7445,-20.2"
       id="path510"
       inkscape:connector-curvature="0"
       style="fill:#ffffff;stroke-width:1.01281464" />
    <path
       d="m 1375.2406,1666.9896 a 4.1113799,4.008 0 0 1 -3.9555,-2.933 l -5.7352,-20.135 a 4.1103541,4.007 0 0 1 2.8589,-4.931 4.1144573,4.011 0 0 1 5.0582,2.788 l 5.7372,20.135 a 4.1113799,4.008 0 0 1 -3.9636,5.076 z"
       id="path512"
       inkscape:connector-curvature="0"
       style="fill:#305d8a;stroke-width:1.01281464" />
    <path
       d="m 1399.6545,1645.4896 4.1031,-8"
       id="path514"
       inkscape:connector-curvature="0"
       style="fill:#ffffff;stroke-width:1.01281464" />
    <path
       d="m 1399.6545,1649.4896 a 4.1083025,4.005 0 0 1 -3.6693,-5.796 l 4.1073,-8.008 a 4.1081023,4.0048047 0 1 1 7.3488,3.582 l -4.1084,8.008 a 4.1072767,4.004 0 0 1 -3.6784,2.214 z"
       id="path516"
       inkscape:connector-curvature="0"
       style="fill:#305d8a;stroke-width:1.01281464" />
    <path
       d="m 1416.0671,1662.9896 22.5675,-5.5"
       id="path518"
       inkscape:connector-curvature="0"
       style="fill:#ffffff;stroke-width:1.01281464" />
    <path
       d="m 1416.0671,1666.9896 a 4.1072767,4.004 0 0 1 -0.9827,-7.891 l 22.5911,-5.451 c 2.1993,-0.521 4.4283,0.777 4.9741,2.924 0.5457,2.147 -0.7971,4.317 -2.9995,4.85 l -22.592,5.451 a 4.2283204,4.122 0 0 1 -0.991,0.117 z"
       id="path520"
       inkscape:connector-curvature="0"
       style="fill:#305d8a;stroke-width:1.01281464" />
    <path
       d="m 1424.2735,1673.6896 7.4883,0.6"
       id="path522"
       inkscape:connector-curvature="0"
       style="fill:#ffffff;stroke-width:1.01281464" />
    <path
       d="m 1431.7618,1678.2896 a 3.5184713,3.43 0 0 1 -0.357,-0.016 l -7.5293,-0.629 a 4.1031736,4 0 0 1 -3.739,-4.333 c 0.1928,-2.197 2.1582,-3.919 4.4437,-3.645 l 7.5304,0.629 a 4.1083025,4.005 0 1 1 -0.3488,7.994 z"
       id="path524"
       inkscape:connector-curvature="0"
       style="fill:#305d8a;stroke-width:1.01281464" />
    <path
       d="m 1231.2192,1569.4096 4.1032,-20.02"
       id="path526"
       inkscape:connector-curvature="0"
       style="fill:#ffffff;stroke-width:1.01281464" />
    <path
       d="m 1231.2192,1573.4196 a 4.1083025,4.005 0 0 1 -4.0314,-4.79 l 4.1073,-20.021 c 0.4452,-2.17 2.5952,-3.594 4.8335,-3.14 a 4.1093283,4.006 0 0 1 3.222,4.712 l -4.1083,20.022 a 4.1052251,4.002 0 0 1 -4.0231,3.217 z"
       id="path528"
       inkscape:connector-curvature="0"
       style="fill:#305d8a;stroke-width:1.01281464" />
    <path
       d="m 1213.7807,1567.6796 -9.9502,-7.37"
       id="path530"
       inkscape:connector-curvature="0"
       style="fill:#ffffff;stroke-width:1.01281464" />
    <path
       d="m 1213.7807,1571.6896 a 4.0734256,3.971 0 0 1 -2.4794,-0.817 l -9.9604,-7.375 a 4.0980446,3.995 0 0 1 -0.7868,-5.608 4.0970188,3.994 0 0 1 5.7516,-0.766 l 9.9605,7.375 a 4.0980446,3.995 0 0 1 0.7868,5.607 4.0898382,3.987 0 0 1 -3.2723,1.584 z"
       id="path532"
       inkscape:connector-curvature="0"
       style="fill:#305d8a;stroke-width:1.01281464" />
    <path
       d="m 1213.7807,1651.4896 -24.8242,6"
       id="path534"
       inkscape:connector-curvature="0"
       style="fill:#ffffff;stroke-width:1.01281464" />
    <path
       d="m 1188.9565,1661.4896 a 4.1093283,4.006 0 0 1 -0.9878,-7.891 l 24.8344,-6.007 c 2.1983,-0.517 4.4284,0.774 4.9792,2.921 a 4.1134315,4.01 0 0 1 -2.9963,4.853 l -24.8345,6.007 c -0.3334,0.078 -0.6668,0.117 -0.995,0.117 z"
       id="path536"
       inkscape:connector-curvature="0"
       style="fill:#305d8a;stroke-width:1.01281464" />
    <path
       d="m 1231.2192,1621.7796 -17.4385,-5.65"
       id="path538"
       inkscape:connector-curvature="0"
       style="fill:#ffffff;stroke-width:1.01281464" />
    <path
       d="m 1231.2192,1625.7896 a 4.1339474,4.03 0 0 1 -1.2956,-0.204 l -17.4252,-5.654 a 4.1113799,4.008 0 0 1 -2.6034,-5.064 c 0.7139,-2.1 3.0456,-3.222 5.1946,-2.538 l 17.4241,5.655 a 4.1124057,4.009 0 0 1 2.6045,5.064 4.1093283,4.006 0 0 1 -3.899,2.741 z"
       id="path540"
       inkscape:connector-curvature="0"
       style="fill:#305d8a;stroke-width:1.01281464" />
    <path
       d="m 1247.119,1594.0996 3.2825,-16.97"
       id="path542"
       inkscape:connector-curvature="0"
       style="fill:#ffffff;stroke-width:1.01281464" />
    <path
       d="m 1247.119,1598.1096 a 4.1103541,4.007 0 0 1 -4.0437,-4.736 l 3.2333,-16.971 c 0.4124,-2.174 2.5594,-3.625 4.7894,-3.207 a 4.1083025,4.005 0 0 1 3.2887,4.669 l -3.2323,16.971 a 4.1103541,4.007 0 0 1 -4.0354,3.274 z"
       id="path544"
       inkscape:connector-curvature="0"
       style="fill:#305d8a;stroke-width:1.01281464" />
    <path
       d="m 1279.8418,1596.7696 12.925,-19.64"
       id="path546"
       inkscape:connector-curvature="0"
       style="fill:#ffffff;stroke-width:1.01281464" />
    <path
       d="m 1279.8418,1600.7796 a 4.0795803,3.977 0 0 1 -2.2219,-0.641 4.0990704,3.996 0 0 1 -1.2238,-5.534 l 13.0092,-19.642 a 4.1021478,3.999 0 0 1 5.6757,-1.193 4.0990704,3.996 0 0 1 1.2237,5.533 l -13.0091,19.643 a 4.0970188,3.994 0 0 1 -3.4538,1.834 z"
       id="path548"
       inkscape:connector-curvature="0"
       style="fill:#305d8a;stroke-width:1.01281464" />
    <path
       d="m 1290.0997,1616.1296 23.2855,2.82"
       id="path550"
       inkscape:connector-curvature="0"
       style="fill:#ffffff;stroke-width:1.01281464" />
    <path
       d="m 1313.3852,1622.9596 c -0.1682,0 -0.3405,-0.01 -0.5139,-0.032 l -23.2773,-2.827 a 4.1062509,4.003 0 0 1 -3.5657,-4.47 c 0.2801,-2.194 2.2978,-3.738 4.5843,-3.477 l 23.2783,2.827 a 4.1072767,4.004 0 0 1 3.5657,4.47 4.1072767,4.004 0 0 1 -4.0714,3.509 z"
       id="path552"
       inkscape:connector-curvature="0"
       style="fill:#305d8a;stroke-width:1.01281464" />
    <path
       d="m 1191.6236,1633.1696 -22.0546,-5.7"
       id="path554"
       inkscape:connector-curvature="0"
       style="fill:#ffffff;stroke-width:1.01281464" />
    <path
       d="m 1191.6236,1637.1796 c -0.3488,0 -0.7058,-0.042 -1.0576,-0.132 l -22.0187,-5.698 a 4.1113799,4.008 0 0 1 -2.9163,-4.899 4.1175347,4.014 0 0 1 5.0253,-2.843 l 22.0187,5.698 a 4.1113799,4.008 0 0 1 2.9163,4.899 4.1124057,4.009 0 0 1 -3.9677,2.975 z"
       id="path556"
       inkscape:connector-curvature="0"
       style="fill:#305d8a;stroke-width:1.01281464" />
    <path
       d="m 1180.545,1606.1196 8.4115,-1.27"
       id="path558"
       inkscape:connector-curvature="0"
       style="fill:#ffffff;stroke-width:1.01281464" />
    <path
       d="m 1180.545,1610.1196 a 4.1072767,4.004 0 0 1 -0.6257,-7.962 l 8.3479,-1.263 a 4.1031736,4 0 0 1 4.6889,3.344 4.1062509,4.003 0 0 1 -3.4303,4.571 l -8.3469,1.264 c -0.2133,0.03 -0.4247,0.046 -0.6339,0.046 z"
       id="path560"
       inkscape:connector-curvature="0"
       style="fill:#305d8a;stroke-width:1.01281464" />
    <path
       d="m 1259.9414,1630.3196 4.1032,-11.37"
       id="path562"
       inkscape:connector-curvature="0"
       style="fill:#ffffff;stroke-width:1.01281464" />
    <path
       d="m 1259.9414,1634.3296 a 4.1052251,4.002 0 0 1 -3.8744,-5.334 l 4.1072,-11.368 c 0.753,-2.088 3.1082,-3.171 5.2388,-2.448 a 4.1062509,4.003 0 0 1 2.5101,5.107 l -4.1083,11.368 a 4.1052251,4.002 0 0 1 -3.8734,2.675 z"
       id="path564"
       inkscape:connector-curvature="0"
       style="fill:#305d8a;stroke-width:1.01281464" />
    <path
       d="m 1206.6001,1587.4296 -10.8734,-10.3"
       id="path566"
       inkscape:connector-curvature="0"
       style="fill:#ffffff;stroke-width:1.01281464" />
    <path
       d="m 1206.6001,1591.4396 a 4.0970188,3.994 0 0 1 -2.8691,-1.138 l -10.8416,-10.3 a 4.1052251,4.002 0 0 1 -0.072,-5.662 4.1134315,4.01 0 0 1 5.808,-0.07 l 10.8427,10.3 a 4.1062509,4.003 0 0 1 -2.8682,6.87 z"
       id="path568"
       inkscape:connector-curvature="0"
       style="fill:#305d8a;stroke-width:1.01281464" />
    <path
       d="m 1233.2708,1642.7896 6.8728,2.7"
       id="path570"
       inkscape:connector-curvature="0"
       style="fill:#ffffff;stroke-width:1.01281464" />
    <path
       d="m 1240.1436,1649.4896 a 4.1134315,4.01 0 0 1 -1.5285,-0.285 l -6.844,-2.671 a 4.1134315,4.01 0 0 1 -2.2865,-5.209 4.1175347,4.014 0 0 1 5.3423,-2.229 l 6.8441,2.671 a 4.1113799,4.008 0 0 1 2.2865,5.208 4.1103541,4.007 0 0 1 -3.8139,2.515 z"
       id="path572"
       inkscape:connector-curvature="0"
       style="fill:#305d8a;stroke-width:1.01281464" />
    <path
       d="m 1195.7267,1740.8896 -15.1817,-19.3"
       id="path574"
       inkscape:connector-curvature="0"
       style="fill:#ffffff;stroke-width:1.01281464" />
    <path
       d="m 1195.7267,1744.8896 a 4.101122,3.998 0 0 1 -3.2723,-1.579 l -15.1191,-19.354 a 4.1103541,4.007 0 0 1 0.7827,-5.611 4.1031736,4 0 0 1 5.7567,0.764 l 15.1182,19.352 a 4.1093283,4.006 0 0 1 -3.2662,6.428 z"
       id="path576"
       inkscape:connector-curvature="0"
       style="fill:#305d8a;stroke-width:1.01281464" />
    <path
       d="m 1173.6722,1737.4896 -7.1806,-6.2"
       id="path578"
       inkscape:connector-curvature="0"
       style="fill:#ffffff;stroke-width:1.01281464" />
    <path
       d="m 1173.6722,1741.4896 a 4.0980446,3.995 0 0 1 -2.7276,-1.009 l -7.2442,-6.266 a 4.1083025,4.005 0 0 1 5.4542,-5.99 l 7.2452,6.265 a 4.1103541,4.007 0 0 1 0.3456,5.654 4.095993,3.993 0 0 1 -3.0732,1.346 z"
       id="path580"
       inkscape:connector-curvature="0"
       style="fill:#305d8a;stroke-width:1.01281464" />
    <path
       d="m 1180.545,1756.5896 -18.4643,7"
       id="path582"
       inkscape:connector-curvature="0"
       style="fill:#ffffff;stroke-width:1.01281464" />
    <path
       d="m 1162.0807,1767.5896 a 4.1103541,4.007 0 0 1 -3.8303,-2.559 4.1113799,4.008 0 0 1 2.347,-5.181 l 18.5392,-7.008 a 4.1195863,4.016 0 0 1 5.3156,2.288 4.1124057,4.009 0 0 1 -2.346,5.181 l -18.5401,7.008 a 4.1124057,4.009 0 0 1 -1.4854,0.271 z"
       id="path584"
       inkscape:connector-curvature="0"
       style="fill:#305d8a;stroke-width:1.01281464" />
    <path
       d="m 1180.545,1772.4896 -6.8728,8.5"
       id="path586"
       inkscape:connector-curvature="0"
       style="fill:#ffffff;stroke-width:1.01281464" />
    <path
       d="m 1173.6722,1784.9896 a 4.0600902,3.958 0 0 1 -2.546,-0.869 4.1031736,4 0 0 1 -0.6658,-5.623 l 6.9005,-8.478 a 4.0990704,3.996 0 0 1 5.7681,-0.649 4.1031736,4 0 0 1 0.6647,5.623 l -6.8995,8.479 a 4.1052251,4.002 0 0 1 -3.222,1.517 z"
       id="path588"
       inkscape:connector-curvature="0"
       style="fill:#305d8a;stroke-width:1.01281464" />
    <path
       d="m 1195.7267,1765.5896 -4.1031,19.4"
       id="path590"
       inkscape:connector-curvature="0"
       style="fill:#ffffff;stroke-width:1.01281464" />
    <path
       d="m 1191.6236,1788.9896 a 4.1113799,4.008 0 0 1 -4.0273,-4.813 l 4.1073,-19.354 a 4.1093283,4.006 0 0 1 4.854,-3.112 4.1124057,4.009 0 0 1 3.1933,4.731 l -4.1083,19.353 a 4.1093283,4.006 0 0 1 -4.019,3.195 z"
       id="path592"
       inkscape:connector-curvature="0"
       style="fill:#305d8a;stroke-width:1.01281464" />
    <path
       d="m 1334.6192,1662.9896 8.2063,-23.5"
       id="path594"
       inkscape:connector-curvature="0"
       style="fill:#ffffff;stroke-width:1.01281464" />
    <path
       d="m 1334.6192,1666.9896 a 4.1062509,4.003 0 0 1 -3.8868,-5.298 l 8.2156,-23.471 a 4.1000962,3.997 0 0 1 5.2151,-2.495 4.1062509,4.003 0 0 1 2.5594,5.083 l -8.2166,23.47 a 4.1083025,4.005 0 0 1 -3.8867,2.711 z"
       id="path596"
       inkscape:connector-curvature="0"
       style="fill:#305d8a;stroke-width:1.01281464" />
    <path
       d="m 1319.3348,1642.7896 1.3336,-9.62"
       id="path598"
       inkscape:connector-curvature="0"
       style="fill:#ffffff;stroke-width:1.01281464" />
    <path
       d="m 1319.3348,1646.7896 a 4.1083025,4.005 0 0 1 -4.0795,-4.509 l 1.2555,-9.651 c 0.2883,-2.194 2.3193,-3.707 4.5935,-3.469 a 4.1113799,4.008 0 0 1 3.5585,4.478 l -1.2556,9.651 a 4.1134315,4.01 0 0 1 -4.0724,3.5 z"
       id="path600"
       inkscape:connector-curvature="0"
       style="fill:#305d8a;stroke-width:1.01281464" />
    <path
       d="m 1247.119,1674.2896 -20.7211,-14.1"
       id="path602"
       inkscape:connector-curvature="0"
       style="fill:#ffffff;stroke-width:1.01281464" />
    <path
       d="m 1247.119,1678.2896 a 4.0929156,3.99 0 0 1 -2.3429,-0.715 l -20.7252,-14.051 a 4.1083025,4.005 0 0 1 -1.0268,-5.575 4.1000962,3.997 0 0 1 5.7188,-1.002 l 20.7262,14.05 a 4.1113799,4.008 0 0 1 1.0268,5.577 4.1031736,4 0 0 1 -3.3769,1.716 z"
       id="path604"
       inkscape:connector-curvature="0"
       style="fill:#305d8a;stroke-width:1.01281464" />
    <path
       d="m 1280.4573,1641.4896 4.1031,-12.01"
       id="path606"
       inkscape:connector-curvature="0"
       style="fill:#ffffff;stroke-width:1.01281464" />
    <path
       d="m 1280.4573,1645.4896 a 4.0723998,3.97 0 0 1 -1.2997,-0.208 4.1031736,4 0 0 1 -2.5953,-5.063 l 4.1083,-12.013 a 4.0929156,3.99 0 0 1 5.1946,-2.53 4.1041994,4.001 0 0 1 2.5943,5.064 l -4.1083,12.013 a 4.1031736,4 0 0 1 -3.8939,2.737 z"
       id="path608"
       inkscape:connector-curvature="0"
       style="fill:#305d8a;stroke-width:1.01281464" />
    <path
       d="m 1273.5844,1660.1896 6.2574,7.1"
       id="path610"
       inkscape:connector-curvature="0"
       style="fill:#ffffff;stroke-width:1.01281464" />
    <path
       d="m 1279.8418,1671.2896 a 4.1031736,4 0 0 1 -3.1071,-1.384 l -6.2297,-7.028 a 4.1134315,4.01 0 0 1 0.4206,-5.65 4.1134315,4.01 0 0 1 5.7957,0.411 l 6.2297,7.027 a 4.1134315,4.01 0 0 1 -0.4206,5.65 4.0990704,3.996 0 0 1 -2.6886,0.974 z"
       id="path612"
       inkscape:connector-curvature="0"
       style="fill:#305d8a;stroke-width:1.01281464" />
    <path
       d="m 1298.1009,1657.4896 -2.6671,20.8"
       id="path614"
       inkscape:connector-curvature="0"
       style="fill:#ffffff;stroke-width:1.01281464" />
    <path
       d="m 1295.4338,1682.2896 a 4.1072767,4.004 0 0 1 -4.0806,-4.505 l 2.6753,-20.78 c 0.28,-2.186 2.2865,-3.715 4.5894,-3.472 a 4.1041994,4.001 0 0 1 3.5616,4.473 l -2.6743,20.78 a 4.1103541,4.007 0 0 1 -4.0714,3.504 z"
       id="path616"
       inkscape:connector-curvature="0"
       style="fill:#305d8a;stroke-width:1.01281464" />
    <path
       d="m 1360.5717,1686.1896 16.4127,-7.9"
       id="path618"
       inkscape:connector-curvature="0"
       style="fill:#ffffff;stroke-width:1.01281464" />
    <path
       d="m 1360.5717,1690.1896 a 4.1083025,4.005 0 0 1 -1.8259,-7.594 l 16.4312,-7.915 a 4.101122,3.998 0 0 1 5.5023,1.814 4.1083025,4.005 0 0 1 -1.8597,5.366 l -16.4312,7.914 a 4.095993,3.993 0 0 1 -1.8167,0.415 z"
       id="path620"
       inkscape:connector-curvature="0"
       style="fill:#305d8a;stroke-width:1.01281464" />
    <path
       d="m 1370.8297,1697.5896 h 12.3095"
       id="path622"
       inkscape:connector-curvature="0"
       style="fill:#ffffff;stroke-width:1.01281464" />
    <path
       d="m 1383.1392,1701.5896 h -12.3229 a 4.1041994,4.001 0 0 1 -4.1073,-4.005 4.1041994,4.001 0 0 1 4.1073,-4.004 h 12.3229 a 4.1041994,4.001 0 0 1 4.1073,4.004 4.1041994,4.001 0 0 1 -4.1073,4.005 z"
       id="path624"
       inkscape:connector-curvature="0"
       style="fill:#305d8a;stroke-width:1.01281464" />
    <path
       d="m 1200.4454,1715.5896 16.4127,12.7"
       id="path626"
       inkscape:connector-curvature="0"
       style="fill:#ffffff;stroke-width:1.01281464" />
    <path
       d="m 1216.8581,1732.2896 a 4.101122,3.998 0 0 1 -2.5471,-0.863 l -16.4311,-12.678 a 4.1124057,4.009 0 0 1 -0.6688,-5.627 4.1052251,4.002 0 0 1 5.7721,-0.653 l 16.4311,12.678 a 4.1134315,4.01 0 0 1 0.6689,5.627 4.1134315,4.01 0 0 1 -3.2251,1.516 z"
       id="path628"
       inkscape:connector-curvature="0"
       style="fill:#305d8a;stroke-width:1.01281464" />
    <path
       d="m 1213.7807,1704.5896 -5.847,-1"
       id="path630"
       inkscape:connector-curvature="0"
       style="fill:#ffffff;stroke-width:1.01281464" />
    <path
       d="m 1213.7807,1708.5896 c -0.2452,0 -0.4903,-0.021 -0.7396,-0.063 l -5.8522,-1.037 a 4.1144573,4.011 0 0 1 -3.3092,-4.657 c 0.4052,-2.178 2.5348,-3.605 4.7772,-3.226 l 5.8521,1.036 a 4.1083025,4.005 0 1 1 -0.7283,7.947 z"
       id="path632"
       inkscape:connector-curvature="0"
       style="fill:#305d8a;stroke-width:1.01281464" />
    <path
       d="m 1233.2708,1691.6896 15.4894,11.9"
       id="path634"
       inkscape:connector-curvature="0"
       style="fill:#ffffff;stroke-width:1.01281464" />
    <path
       d="m 1248.7602,1707.5896 a 4.0877867,3.985 0 0 1 -2.5357,-0.855 l -15.4957,-11.873 a 4.1072767,4.004 0 0 1 -0.6893,-5.623 4.1000962,3.997 0 0 1 5.7681,-0.672 l 15.4946,11.872 a 4.1083025,4.005 0 0 1 -2.542,7.151 z"
       id="path636"
       inkscape:connector-curvature="0"
       style="fill:#305d8a;stroke-width:1.01281464" />
    <path
       d="m 1264.0446,1694.8896 6.3599,10"
       id="path638"
       inkscape:connector-curvature="0"
       style="fill:#ffffff;stroke-width:1.01281464" />
    <path
       d="m 1270.4045,1708.8896 a 4.1134315,4.01 0 0 1 -3.5021,-1.9 l -6.3466,-10.03 a 4.1165089,4.013 0 0 1 1.3408,-5.514 4.1175347,4.014 0 0 1 5.6562,1.306 l 6.3466,10.03 a 4.1165089,4.013 0 0 1 -1.3407,5.514 4.1236894,4.02 0 0 1 -2.1542,0.594 z"
       id="path640"
       inkscape:connector-curvature="0"
       style="fill:#305d8a;stroke-width:1.01281464" />
    <path
       d="m 1338.8249,1753.5896 11.8992,-12.7"
       id="path642"
       inkscape:connector-curvature="0"
       style="fill:#ffffff;stroke-width:1.01281464" />
    <path
       d="m 1338.8249,1757.5896 a 4.1093283,4.006 0 0 1 -3.0292,-6.71 l 11.931,-12.682 a 4.1083025,4.005 0 1 1 6.0563,5.412 l -11.93,12.682 a 4.0970188,3.994 0 0 1 -3.0281,1.298 z"
       id="path644"
       inkscape:connector-curvature="0"
       style="fill:#305d8a;stroke-width:1.01281464" />
    <path
       d="m 1360.5717,1760.0896 8.2064,-2.5"
       id="path646"
       inkscape:connector-curvature="0"
       style="fill:#ffffff;stroke-width:1.01281464" />
    <path
       d="m 1360.5717,1764.0896 a 4.1052251,4.002 0 0 1 -3.9185,-2.812 4.1031736,4 0 0 1 2.6958,-5.014 l 8.2145,-2.503 c 2.1583,-0.672 4.4653,0.513 5.1434,2.628 a 4.1031736,4 0 0 1 -2.6958,5.013 l -8.2156,2.503 a 4.0262391,3.925 0 0 1 -1.2238,0.185 z"
       id="path648"
       inkscape:connector-curvature="0"
       style="fill:#305d8a;stroke-width:1.01281464" />
    <path
       d="m 1372.3683,1734.3896 24.0036,-3.1"
       id="path650"
       inkscape:connector-curvature="0"
       style="fill:#ffffff;stroke-width:1.01281464" />
    <path
       d="m 1372.3683,1738.3896 a 4.1083025,4.005 0 0 1 -0.5405,-7.973 l 24.0322,-3.133 c 2.2742,-0.27 4.3156,1.251 4.6161,3.438 a 4.1083025,4.005 0 0 1 -3.5256,4.501 l -24.0323,3.132 c -0.1847,0.024 -0.3683,0.035 -0.5499,0.035 z"
       id="path652"
       inkscape:connector-curvature="0"
       style="fill:#305d8a;stroke-width:1.01281464" />
    <path
       d="m 1387.8578,1753.5896 5.6419,-2.3"
       id="path654"
       inkscape:connector-curvature="0"
       style="fill:#ffffff;stroke-width:1.01281464" />
    <path
       d="m 1387.8578,1757.5896 a 4.1052251,4.002 0 0 1 -3.7708,-2.416 4.1093283,4.006 0 0 1 2.1429,-5.264 l 5.5547,-2.339 a 4.1083025,4.005 0 0 1 3.2579,7.352 l -5.5557,2.339 a 4.0847093,3.982 0 0 1 -1.629,0.328 z"
       id="path656"
       inkscape:connector-curvature="0"
       style="fill:#305d8a;stroke-width:1.01281464" />
    <path
       d="m 1222.4999,1784.9896 -15.8998,12.7"
       id="path658"
       inkscape:connector-curvature="0"
       style="fill:#ffffff;stroke-width:1.01281464" />
    <path
       d="m 1206.6001,1801.6896 a 4.1083025,4.005 0 0 1 -2.6024,-7.105 l 15.9316,-12.682 a 4.1072767,4.004 0 0 1 5.7814,0.567 4.1052251,4.002 0 0 1 -0.5817,5.634 l -15.9316,12.682 a 4.1124057,4.009 0 0 1 -2.5973,0.904 z"
       id="path660"
       inkscape:connector-curvature="0"
       style="fill:#305d8a;stroke-width:1.01281464" />
    <path
       d="m 1231.2192,1765.5896 15.8998,2.7"
       id="path662"
       inkscape:connector-curvature="0"
       style="fill:#ffffff;stroke-width:1.01281464" />
    <path
       d="m 1247.119,1772.2896 c -0.2298,0 -0.4657,-0.02 -0.6986,-0.058 l -15.9326,-2.668 a 4.1021478,3.999 0 0 1 -3.3544,-4.621 4.1103541,4.007 0 0 1 4.7423,-3.27 l 15.9326,2.667 a 4.1021478,3.999 0 0 1 3.3533,4.622 4.1031736,4 0 0 1 -4.0426,3.328 z"
       id="path664"
       inkscape:connector-curvature="0"
       style="fill:#305d8a;stroke-width:1.01281464" />
    <path
       d="m 1240.9642,1794.9896 15.5921,-10"
       id="path666"
       inkscape:connector-curvature="0"
       style="fill:#ffffff;stroke-width:1.01281464" />
    <path
       d="m 1240.9642,1798.9896 a 4.1062509,4.003 0 0 1 -2.2701,-7.345 l 15.5244,-10.011 a 4.1000962,3.997 0 0 1 5.6921,1.131 4.1072767,4.004 0 0 1 -1.1591,5.549 l -15.5244,10.011 a 4.0980446,3.995 0 0 1 -2.2629,0.665 z"
       id="path668"
       inkscape:connector-curvature="0"
       style="fill:#305d8a;stroke-width:1.01281464" />
    <path
       d="m 1286.3043,1775.2896 -6.4625,16"
       id="path670"
       inkscape:connector-curvature="0"
       style="fill:#ffffff;stroke-width:1.01281464" />
    <path
       d="m 1279.8418,1795.2896 a 4.1072767,4.004 0 0 1 -3.819,-5.478 l 6.5035,-16.017 a 4.1134315,4.01 0 0 1 5.33,-2.248 4.1052251,4.002 0 0 1 2.307,5.196 l -6.5025,16.018 a 4.1062509,4.003 0 0 1 -3.819,2.529 z"
       id="path672"
       inkscape:connector-curvature="0"
       style="fill:#305d8a;stroke-width:1.01281464" />
    <path
       d="m 1301.6912,1789.9896 3.5903,7.7"
       id="path674"
       inkscape:connector-curvature="0"
       style="fill:#ffffff;stroke-width:1.01281464" />
    <path
       d="m 1305.2815,1801.6896 a 4.1052251,4.002 0 0 1 -3.7391,-2.334 l -3.6107,-7.677 a 4.1093283,4.006 0 0 1 2.0218,-5.31 c 2.0936,-0.916 4.5094,-0.035 5.448,1.971 l 3.6108,7.676 a 4.1093283,4.006 0 0 1 -3.7308,5.674 z"
       id="path676"
       inkscape:connector-curvature="0"
       style="fill:#305d8a;stroke-width:1.01281464" />
    <path
       d="m 1261.993,1737.4896 -21.0288,-6.2"
       id="path678"
       inkscape:connector-curvature="0"
       style="fill:#ffffff;stroke-width:1.01281464" />
    <path
       d="m 1261.993,1741.4896 c -0.398,0 -0.8022,-0.055 -1.2043,-0.176 l -21.0031,-6.266 a 4.1062509,4.003 0 0 1 -2.7235,-5.001 4.090864,3.988 0 0 1 5.131,-2.655 l 21.0031,6.265 a 4.1072767,4.004 0 0 1 -1.2032,7.833 z"
       id="path680"
       inkscape:connector-curvature="0"
       style="fill:#305d8a;stroke-width:1.01281464" />
    <path
       d="m 1313.3852,1758.8896 3.3851,-7.6"
       id="path682"
       inkscape:connector-curvature="0"
       style="fill:#ffffff;stroke-width:1.01281464" />
    <path
       d="m 1313.3852,1762.8896 a 4.1442053,4.04 0 0 1 -1.6484,-0.336 4.1134315,4.01 0 0 1 -2.1101,-5.279 l 3.421,-7.595 a 4.1175347,4.014 0 0 1 5.4152,-2.057 4.1134315,4.01 0 0 1 2.1101,5.279 l -3.4221,7.595 a 4.1113799,4.008 0 0 1 -3.7657,2.393 z"
       id="path684"
       inkscape:connector-curvature="0"
       style="fill:#305d8a;stroke-width:1.01281464" />
    <path
       d="m 1338.7223,1783.2896 12.925,2.7"
       id="path686"
       inkscape:connector-curvature="0"
       style="fill:#ffffff;stroke-width:1.01281464" />
    <path
       d="m 1351.6473,1789.9896 c -0.279,0 -0.5652,-0.026 -0.8504,-0.085 l -13.008,-2.671 a 4.1083025,4.005 0 0 1 -3.1728,-4.744 c 0.4688,-2.162 2.6629,-3.554 4.8653,-3.092 l 13.0091,2.67 a 4.1093283,4.006 0 0 1 3.1728,4.743 4.1103541,4.007 0 0 1 -4.016,3.179 z"
       id="path688"
       inkscape:connector-curvature="0"
       style="fill:#305d8a;stroke-width:1.01281464" />
    <path
       d="m 1177.7753,1861.6896 h 242.395"
       id="path690"
       inkscape:connector-curvature="0"
       style="fill:#ffffff;stroke-width:1.01281464" />
    <path
       d="m 1420.1703,1865.6896 h -242.3437 a 4.1062509,4.003 0 0 1 -4.1083,-4.005 4.1062509,4.003 0 0 1 4.1083,-4.004 h 242.3437 a 4.1052251,4.002 0 0 1 4.1073,4.004 4.1052251,4.002 0 0 1 -4.1073,4.005 z"
       id="path692"
       inkscape:connector-curvature="0"
       style="fill:#305d8a;stroke-width:1.01281464" />
    <path
       d="m 338.4917,1922.7896 c 0,-30.298 -25.10732,-54.863 -56.1386,-55.051 v -7.352 c 0,-12.537 -10.42924,-22.699 -23.28961,-22.699 h -93.07742 c -12.86037,0 -23.28961,10.162 -23.28961,22.699 v 122.78 c 0,12.537 10.42924,22.7 23.28961,22.7 h 93.07742 c 12.86037,0 23.28961,-10.163 23.28961,-22.7 v -5.326 c 31.0323,-0.187 56.1386,-24.753 56.1386,-55.05 z m -56.13757,31.025 v -62.051 c 17.42515,0.184 31.49288,13.996 31.49288,31.025 0,17.029 -14.06773,30.842 -31.49288,31.026 z"
       id="path694"
       inkscape:connector-curvature="0"
       style="fill:#eae8e1;stroke-width:1.01281464" />
    <path
       d="M 259.06451,2009.8896 H 165.9871 c -15.10686,0 -27.39689,-11.979 -27.39689,-26.705 v -122.78 c 0,-14.727 12.29106,-26.704 27.39689,-26.704 h 93.07741 c 15.10686,0 27.39689,11.978 27.39689,26.704 v 3.504 c 31.30824,2.244 56.1386,27.873 56.1386,58.898 0,31.025 -24.83036,56.654 -56.1386,58.899 v 1.478 c 0,14.727 -12.29003,26.706 -27.39689,26.706 z m -93.07741,-168.18 c -10.57798,0 -19.18234,8.389 -19.18234,18.696 v 122.78 c 0,10.309 8.60436,18.696 19.18234,18.696 h 93.07741 c 10.57901,0 19.18234,-8.388 19.18234,-18.696 v -5.326 a 4.1103541,4.007 0 0 1 4.08266,-4.004 c 28.70067,-0.172 52.05491,-23.072 52.05491,-51.047 0,-27.975 -23.35424,-50.875 -52.05491,-51.047 a 4.1093283,4.006 0 0 1 -4.08266,-4.004 v -7.352 c 0,-10.308 -8.60436,-18.696 -19.18234,-18.696 z m 116.366,116.13 a 4.0980446,3.995 0 0 1 -2.88761,-1.157 4.0929156,3.99 0 0 1 -1.21864,-2.847 v -62.051 c 0,-1.071 0.43699,-2.096 1.21864,-2.847 0.78268,-0.755 1.88541,-1.231 2.93172,-1.157 19.60701,0.207 35.55605,15.92 35.55605,35.029 0,19.11 -15.94904,34.823 -35.55605,35.029 z m 4.10728,-61.702 v 53.346 c 13.16093,-2.096 23.2773,-13.307 23.2773,-26.673 0,-13.366 -10.11637,-24.577 -23.2773,-26.673 z"
       id="path696"
       inkscape:connector-curvature="0"
       style="fill:#305d8a;stroke-width:1.01281464" />
    <path
       d="m 282.36028,1867.7896 v -7.352 c 0,-12.537 -10.42924,-22.699 -23.28961,-22.699 h -30.10909 v 168.18 h 30.10909 c 12.86037,0 23.28961,-10.163 23.28961,-22.7 v -5.326 c 31.03128,-0.188 56.1386,-24.753 56.1386,-55.051 0,-30.298 -25.10732,-54.864 -56.1386,-55.051 z m 0,86.076 v -62.051 c 17.42515,0.184 31.49288,13.996 31.49288,31.025 0,17.029 -14.06773,30.842 -31.49288,31.026 z"
       id="path698"
       inkscape:connector-curvature="0"
       style="opacity:0.2;fill:#9db6c9;stroke-width:1.01281464" />
    <path
       d="m 167.34833,1853.6896 h 90.36214"
       id="path700"
       inkscape:connector-curvature="0"
       style="fill:#ffffff;stroke-width:1.01281464" />
    <path
       d="m 257.71047,1857.6896 h -90.36625 a 4.1052251,4.002 0 0 1 -4.10727,-4.005 4.1052251,4.002 0 0 1 4.10727,-4.004 h 90.36625 a 4.1062509,4.003 0 0 1 4.1083,4.004 4.1062509,4.003 0 0 1 -4.1083,4.005 z"
       id="path702"
       inkscape:connector-curvature="0"
       style="fill:#305d8a;stroke-width:1.01281464" />
  </g>
</svg>
