<svg xmlns="http://www.w3.org/2000/svg" viewBox="0 0 350 400"><path d="M123.455 195.263c3.638-4.23 1.072-9.824-4.867-10.61l-3.319-.438v13.645l3.296-.372c2.414-.272 3.721-.867 4.89-2.225zm40.01 14.645c3.829-1.98 5.597-5.83 5.597-12.186 0-4.819-2.217-9.615-5.24-11.333-1.152-.655-4.06-1.41-6.462-1.678l-4.366-.487v12.98c0 11.613.129 13.058 1.223 13.721 1.44.874 6.714.293 9.249-1.017zm-62.168 3.838c0-1.08.466-1.397 2.057-1.397 3.735 0 4.23-1.697 4.23-14.477 0-10.44-.114-11.486-1.396-12.769-.769-.768-2.184-1.397-3.144-1.397-1.304 0-1.747-.369-1.747-1.456 0-1.427.232-1.451 11.702-1.216 10.529.216 11.998.397 14.656 1.812 6.564 3.493 6.916 12.288.648 16.162-1.304.806-2.953 1.465-3.666 1.465-1.69 0 7.455 9.316 10.619 10.817 3 1.424 7.525 1.374 8.745-.096.732-.882.96-4.038.96-13.33 0-11.245-.104-12.25-1.357-13.166-.746-.546-2.24-.992-3.318-.992-1.497 0-1.963-.331-1.963-1.397 0-1.338.466-1.397 11.031-1.397 12.42 0 17.668.959 22.115 4.04 8.63 5.98 8.353 20.491-.504 26.463-4.777 3.221-8.438 3.728-26.913 3.728h-16.557l-5.521-6.986c-3.037-3.842-5.788-6.985-6.113-6.985-.325 0-.592 1.816-.592 4.036 0 4.938 1.306 7.142 4.232 7.142 1.59 0 2.056.316 2.056 1.397 0 1.333-.466 1.397-10.13 1.397-9.664 0-10.13-.064-10.13-1.397zm-14.836-3.23c6.833-4.978 6.819-19.977-.023-24.849-3.04-2.164-9.103-2.507-12.386-.7-3.646 2.005-6.288 7.474-6.288 13.015 0 5.613 2.674 11.2 6.288 13.14 3.198 1.716 9.655 1.401 12.41-.606zm-12.06 5.413c-6.24-1.656-12.63-7.295-14.198-12.527-2.673-8.92 1.803-17.868 11.019-22.033 4.563-2.062 12.399-1.977 17.31.187 4.026 1.775 8.823 6.493 10.374 10.204 1.39 3.326 1.235 9.864-.313 13.254-1.544 3.38-6.697 8.26-10.347 9.798-3.092 1.303-10.8 1.925-13.845 1.117zM14.726 198.55c-7.508-23.279-8.215-24.625-12.934-24.625-1.326 0-1.792-.363-1.792-1.397 0-1.34.466-1.398 11.178-1.398 10.712 0 11.177.058 11.177 1.398 0 1.079-.465 1.397-2.046 1.397-1.862 0-4.24 1.496-4.242 2.67 0 .26 1.63 5.596 3.623 11.856 2.725 8.561 3.785 11.095 4.274 10.22.358-.639 2.604-7.018 4.992-14.176 5.862-17.573 5.689-17.58 11.548.406 2.478 7.603 4.685 14.056 4.906 14.34.22.283 2.111-4.678 4.2-11.024 4.227-12.838 4.21-13.78-.255-14.16-1.982-.168-2.549-.518-2.549-1.572 0-1.276.568-1.355 9.78-1.355 9.316 0 9.781.067 9.781 1.398 0 1.136-.465 1.397-2.499 1.397-4.639 0-5.636 1.809-12.818 23.264-5.018 14.993-6.746 19.374-7.575 19.212-.729-.143-2.517-4.696-5.57-14.183-2.473-7.684-4.714-14.202-4.98-14.484-.267-.281-2.667 6.085-5.334 14.147-3.596 10.87-5.135 14.658-5.956 14.658-.83 0-2.552-4.48-6.909-17.989z" fill="#21759a"/><path d="M238.519 196.698c5.18-2.165 4.66-10.037-.764-11.542-5.795-1.61-5.819-1.586-5.819 5.885v6.637h2.118c1.165 0 3.174-.44 4.465-.98zm-20.555 17.048c0-1.08.466-1.397 2.046-1.397 1.125 0 2.515-.469 3.087-1.042 1.415-1.414 2.12-8.848 1.671-17.63-.413-8.09-1.321-9.97-4.816-9.97-1.553 0-1.988-.321-1.988-1.467 0-1.443.195-1.462 12.051-1.209 12.686.272 13.8.521 17.431 3.907 4.837 4.509 2.206 13.75-4.324 15.183l-2.091.46 3.312 3.837c6.25 7.242 12.655 9.938 15.148 6.378.876-1.25 1.088-3.763 1.088-12.924 0-10.44-.115-11.486-1.397-12.769-.769-.768-2.183-1.397-3.144-1.397-1.28 0-1.747-.372-1.747-1.397 0-1.354.466-1.397 14.95-1.397h14.949l.495 4.931c.272 2.713.318 5.11.1 5.326-.867.868-2.375-.477-2.774-2.475-.55-2.752-1.792-3.34-8.333-3.95l-5.415-.503v11.358l2.97-.44c3.268-.486 4.715-1.79 4.715-4.251 0-1.147.404-1.613 1.397-1.613 1.317 0 1.398.466 1.398 8.034 0 7.568-.081 8.034-1.398 8.034-1.08 0-1.397-.466-1.397-2.056 0-2.521-2.18-4.232-5.395-4.232h-2.29v4.464c0 6.309 1.282 7.775 6.752 7.724 6.214-.057 7.697-.646 8.714-3.457.592-1.64 1.325-2.443 2.227-2.443 1.133 0 1.276.343.908 2.183-.24 1.2-.437 3.401-.437 4.89v2.707l-21.133-.033-21.132-.034-5.475-6.953c-3.01-3.824-5.762-6.952-6.113-6.952-1.418 0-.01 9.562 1.554 10.553.524.332 1.816.608 2.873.614 1.452.008 1.921.352 1.921 1.408 0 1.335-.466 1.397-10.479 1.397s-10.479-.062-10.479-1.397zm-14.087-22.645c5.254-2.717 5.254-12.073 0-14.79-1.051-.543-3.499-.988-5.44-.988h-3.527v16.766h3.528c1.94 0 4.388-.444 5.439-.988zm-25.035 22.645c0-1.091.466-1.397 2.128-1.397 1.302 0 2.765-.637 3.77-1.642 1.408-1.408 1.715-2.624 2.16-8.558.286-3.804.335-10.827.11-15.608-.48-10.178-1.354-12.12-5.617-12.483-2.019-.171-2.55-.51-2.55-1.623 0-1.37.359-1.4 14.146-1.18 14.108.225 14.156.231 17.53 2.214 5.746 3.378 7.548 9.76 4.476 15.853-2.335 4.63-7.25 6.959-14.689 6.959h-5.53l.241 6.7c.219 6.044.404 6.829 1.892 8.033.907.734 2.557 1.335 3.667 1.335 1.553 0 2.019.322 2.019 1.397 0 1.342-.466 1.397-11.876 1.397s-11.877-.055-11.877-1.397zm144.611-4.54c0-6.77.104-7.336 1.342-7.336.925 0 1.486.656 1.806 2.112.567 2.586 3.324 5.97 5.982 7.344 4.39 2.27 9.732.576 9.732-3.087 0-2.517-1.92-4.216-8.383-7.417-5.766-2.856-8.015-4.626-9.497-7.475-2.14-4.114-.346-9.909 3.703-11.959 3.964-2.007 6.94-2.028 13.304-.093 1.18.359 1.572.196 1.572-.651 0-.664.576-1.13 1.397-1.13 1.294 0 1.397.466 1.397 6.288 0 5.588-.14 6.287-1.256 6.287-.8 0-1.575-.878-2.129-2.41-1.886-5.217-8.118-7.743-11.285-4.576-2.933 2.933-1.332 4.94 7.097 8.896 7.723 3.623 10.368 6.553 10.368 11.48 0 6.349-3.739 10.129-10.732 10.85-2.854.295-4.464.045-7.04-1.095-3.44-1.521-4.583-1.446-4.583.3 0 .553-.63 1.006-1.398 1.006-1.308 0-1.397-.465-1.397-7.335zm-30.738 0c0-6.87.088-7.336 1.397-7.336.86 0 1.401.47 1.408 1.222.022 2.243 3.103 6.65 5.567 7.962 4.905 2.61 10.49.946 10.49-3.124 0-2.234-2.087-3.94-9.431-7.708-7.398-3.796-9.431-6.178-9.431-11.05 0-3.64 1.653-6.237 5.108-8.024 2.851-1.474 8.616-1.524 11.457-.098 2.126 1.066 2.267 1.056 2.667-.205.233-.732 1.03-1.33 1.773-1.33 1.234 0 1.35.538 1.35 6.287 0 5.737-.118 6.287-1.343 6.287-.913 0-1.6-.775-2.143-2.422-1.061-3.217-4.394-5.96-7.24-5.96-4.98 0-7.101 4.25-3.42 6.85 1.056.747 4.435 2.623 7.51 4.169 7.292 3.667 8.882 5.402 9.26 10.108.37 4.622-1.57 7.848-6.096 10.135-3.82 1.93-7.777 1.984-11.793.161-3.15-1.429-4.296-1.321-4.296.404 0 .553-.629 1.006-1.397 1.006-1.309 0-1.397-.465-1.397-7.335zM145.83 81.177c-6.439-19.11-11.705-35.1-11.702-35.533.002-.45 1.666-.925 3.882-1.108 4.555-.378 6.692-1.9 5.197-3.702-.821-.99-2.314-1.066-12.34-.633-6.273.27-11.406.268-11.406-.006 0-1.201 4.483-6.737 9.2-11.36 12.073-11.837 28.184-18.372 45.291-18.372 7.74 0 13.526.976 21.554 3.637 6.507 2.157 16.665 7.876 20.554 11.571L218 27.514l-3.074.896c-3.91 1.14-7.096 4.389-8.06 8.218-1.005 3.99.225 8.008 4.816 15.74 8.182 13.781 8.233 19.243.42 44.985-2.904 9.564-5.437 17.547-5.63 17.74-.193.192-.509-.088-.703-.623-1.069-2.952-23.433-69.302-23.433-69.522 0-.145 1.336-.295 2.97-.333 4.828-.114 6.461-.81 6.461-2.752v-1.71l-19.017-.034c-14.926-.027-19.093.16-19.365.868-.71 1.852.483 2.938 3.689 3.359l4.239.557c.6.08 2.98 5.549 6.12 14.065l5.14 13.935-7.161 21.52c-3.938 11.835-7.322 21.515-7.518 21.51-.197-.005-5.626-15.645-12.064-34.756zm60.258 50.651c0-.1 4.764-13.853 10.588-30.564 13.081-37.538 13.96-40.691 14.004-50.25.03-6.37.155-7.126.996-5.977 1.642 2.246 4.974 11.615 6.137 17.257 1.27 6.163 1.458 18.586.375 24.702-2.407 13.589-9.71 27.082-19.63 36.267-5.326 4.93-12.47 9.837-12.47 8.565zm-67.066-1.085c-15.472-9.927-26.135-25.845-29.306-43.747-1.152-6.507-.877-18.126.6-25.279 1.261-6.117 3.908-13.421 4.607-12.722.3.3 31.085 84.382 31.085 84.9 0 .852-2.516-.283-6.986-3.152zm26.223 9.548c-7.227-.926-10.344-1.893-9.893-3.068.21-.544 4.513-13.02 9.564-27.727 5.05-14.706 9.442-27.21 9.76-27.786.45-.819.75-.59 1.377 1.048 3.114 8.136 19.556 53.59 19.556 54.065 0 1.445-15.986 4.39-22.686 4.18-1.547-.049-5.002-.369-7.678-.712zm20.927 6.021c36.415-6.35 63.163-41.435 59.103-77.523-2.037-18.099-8.572-31.467-21.687-44.364-13.735-13.507-30.455-20.367-49.636-20.367-13.25 0-25.623 3.434-37.156 10.312-7.178 4.281-18.075 14.814-22.574 21.82C97.318 62.51 98.417 94.11 117.1 118.97c15.906 21.164 43 31.889 69.071 27.342zm-25.734 4.188c-15.458-2.92-28.927-9.985-39.937-20.948-29.343-29.217-30-76.32-1.482-106.349C129.916 11.73 144.05 3.953 159.247 1.07c7.518-1.427 21.892-1.427 29.41 0 27.603 5.236 50.404 26.192 58.235 53.522 10.367 36.18-6.943 74.04-41.19 90.088-9.507 4.456-17.727 6.283-29.654 6.593-7.027.182-11.808-.055-15.61-.773z" fill="#464646"/></svg>