<svg xmlns="http://www.w3.org/2000/svg"><path fill="none" d="M-1-1h52v52H-1z"/><g><path fill="#2B414D" d="M25.3.716C11.72.716.71 11.502.71 24.804c0 13.304 11.01 24.088 24.59 24.088s24.591-10.784 24.591-24.088c0-13.302-11.01-24.088-24.59-24.088zm6.889 42.438c-.142-1.884-.3-4.22-.31-5.165-.06-.726-.14-2.571-1.93-3.75 7.102-.583 10.482-4.428 10.725-9.509.203-2.893-.971-5.438-3.057-7.49.106-2.197-.068-4.8-.212-5.945-1.601-.451-5.336 1.48-6.38 2.307-2.2-.837-7.587-1.13-10.86 0-2.322-1.599-4.964-2.587-6.404-2.311-1.33 2.886-.475 5.614-.215 5.94-1.712 1.532-4.1 3.418-3.452 7.37 1.04 5.795 5.203 8.92 11.903 9.685-1.429.286-1.67 1.33-1.79 1.784-4.5 1.818-5.786-1.123-6.355-1.89-1.889-2.29-3.584-1.625-3.689-1.59-.101.037-.178.181-.167.25.095.494 1.123.996 1.174 1.036 1.394 1.018 1.91 2.856 2.228 3.38 2 3.22 6.648 1.885 6.692 1.912.003.282-.032 2.651-.06 4.495-8.474-2.267-14.71-9.84-14.71-18.859 0-10.81 8.945-19.571 19.98-19.571s19.98 8.762 19.98 19.571c0 8.435-5.456 15.6-13.091 18.35z"/></g></svg>